<svg xmlns="http://www.w3.org/2000/svg" width="153" height="153" viewBox="0 0 153 153">
  <g id="Group_1" data-name="Group 1" transform="translate(0 -27)">
    <circle id="Ellipse_1" data-name="Ellipse 1" cx="69.5" cy="69.5" r="69.5" transform="translate(7 34)" fill="none" stroke="#fff" stroke-width="14"/>
    <path id="Path_1" data-name="Path 1" d="M94.048,217.2A14.449,14.449,0,0,1,83.21,212.97q-4.01-4.227-4.01-14.09v-47.8H95.457v49.205q0,5.094,4.986,5.094a10.145,10.145,0,0,0,4.66-1.3,7.46,7.46,0,0,0,3.468-3.36V151.084h16.257v65.029H108.572v-7.045H106.4a18.353,18.353,0,0,1-5.419,6.286A12.409,12.409,0,0,1,94.048,217.2Zm39.441,20.593V151.084h16.257v7.045h2.276a22.074,22.074,0,0,1,4.769-5.961Q159.284,150,164.378,150q6.72,0,10.513,4.227t4.227,14.09q.108,2.6.108,6.72.108,4.01.108,8.562t-.108,8.671q0,4.01-.108,6.611-.434,9.863-4.66,14.09a14.811,14.811,0,0,1-10.947,4.227,10.91,10.91,0,0,1-6.286-1.842,19.729,19.729,0,0,1-5.2-6.286h-2.276v28.721Zm23.3-32.406a7.28,7.28,0,0,0,4.227-1.192,4.837,4.837,0,0,0,1.843-3.9q.325-4.227.325-10.188.108-6.069,0-12.247,0-6.286-.325-10.947a5.535,5.535,0,0,0-1.3-3.793,4.766,4.766,0,0,0-3.685-1.3,10.144,10.144,0,0,0-4.66,1.3,6.845,6.845,0,0,0-3.468,3.36v34.249a8.632,8.632,0,0,0,2.818,3.577A7.487,7.487,0,0,0,156.792,205.383Z" transform="translate(-52.637 -84.569)" fill="#fff"/>
    <rect id="Rectangle_1" data-name="Rectangle 1" width="16.259" height="13.997" transform="translate(26.564 53.059)" fill="#fff"/>
    <rect id="Rectangle_2" data-name="Rectangle 2" width="11.887" height="5.831" transform="translate(30.934 49.027)" fill="#fff"/>
    <rect id="Rectangle_3" data-name="Rectangle 3" width="7.549" height="4.653" transform="translate(35.277 45.739)" fill="#fff"/>
    <rect id="Rectangle_4" data-name="Rectangle 4" width="2.956" height="3.04" transform="translate(39.867 43.878)" fill="#fff"/>
  </g>
</svg>
