<svg id="Layer_1" data-name="Layer 1" xmlns="http://www.w3.org/2000/svg" viewBox="0 0 125.67 194.63"><defs><style>.cls-1{fill:#f37321;}</style></defs><path class="cls-1" d="M56.53,100.38l0-2.22c0-.82,0-1.64,0-2.47A76.42,76.42,0,0,0,53.76,75a75.78,75.78,0,0,0-5.83-14.6q-.7-1.35-1.47-2.67l-.3-.51-.34-.55c-.31-.52-.62-1-.94-1.55l-.4-.62-.47-.7q-.39-.62-.81-1.23c-.16-.22-.32-.45-.49-.67l-.51-.71c-.26-.36-.52-.73-.79-1.09l-.53-.69-.52-.66-.83-1c-.18-.23-.38-.45-.57-.68l-.55-.64c-.28-.34-.56-.67-.85-1s-.39-.43-.59-.65l-.58-.62c-.29-.33-.59-.65-.89-1l-.67-.68-.54-.54c-.31-.32-.62-.63-.94-.94l-.72-.67-.56-.52c-.32-.3-.63-.59-1-.88l-.74-.65-.57-.48-1-.85L28,36.27l-.55-.43c-.35-.28-.7-.56-1.06-.83l-.89-.66L25.09,34c-.38-.28-.75-.56-1.14-.82L23,32.58l-.47-.32c-.37-.25-.74-.5-1.12-.74l-1-.6-.36-.23-1.26-.76-1-.59-.36-.2-1.26-.7L15,27.86l-.58-.3-.59-.3-.29-.14.06-1.42c0-.33,0-.66.06-1s.06-.92.1-1.38V23.1c0-.31.05-.62.08-.93s.08-.83.13-1.24l0-.43.09-.86c0-.42.11-.83.17-1.25l.06-.49c0-.26.07-.52.11-.77.06-.43.13-.86.2-1.29l.08-.5.12-.71c.08-.44.16-.88.25-1.32l.1-.55.12-.61.36-1.66.18-.81c.2-.82.4-1.64.61-2.45l.16-.58.54.25A75.11,75.11,0,0,1,47.84,32.5c1.27,1.82,2.46,3.72,3.56,5.66.73,1.29,1.43,2.62,2.09,4s1.27,2.7,1.85,4.08a75.49,75.49,0,0,1,4.54,15.19,70.88,70.88,0,0,1,1,8c.16,1.88.23,3.85.23,5.85,0,1.07,0,2.13-.07,3.19,0,.21,0,.43,0,.65l0,.38c0,.72-.08,1.43-.14,2.13q0,.47-.09.93l0,.29c-.07.65-.14,1.29-.22,1.94-.05.42-.11.84-.17,1.27-.09.62-.19,1.25-.3,1.87-.07.42-.14.84-.22,1.26-.12.64-.25,1.27-.38,1.9l-.06.27c-.07.31-.13.62-.2.92q-.24,1-.51,2l-.1.37c0,.21-.1.43-.16.64-.27,1-.55,1.91-.85,2.86l0,.15ZM14.59,26.51l.32.16.56.29c.39.2.78.39,1.16.6l1.28.7.36.2,1.06.6,1.28.78.36.22,1,.62,1.14.75.46.31c.32.21.65.43,1,.65l1.17.84.43.31.9.67c.36.27.72.56,1.08.84l.54.43c.27.21.54.42.8.64l1,.87.56.48.76.66c.33.29.65.59,1,.89l.57.52.72.69c.33.31.65.63,1,1l.54.54.68.69.92,1,.57.62.6.67c.3.33.58.67.87,1l.54.64c.2.23.4.46.59.7s.56.7.84,1.06l.51.66c.19.23.38.47.56.71s.54.74.8,1.11l.51.7L44,52c.29.41.56.84.84,1.26l.45.69.42.63c.33.52.64,1.05,1,1.58l.33.54c.11.17.22.35.32.53.52.89,1,1.79,1.49,2.71a75.94,75.94,0,0,1,5.9,14.79,76.41,76.41,0,0,1,2.89,19.87.83.83,0,0,0,0-.15l.1-.38c.17-.67.35-1.33.5-2,.07-.29.13-.6.2-.9l.06-.27c.13-.63.26-1.25.37-1.87.08-.42.15-.83.22-1.25.11-.61.2-1.23.29-1.85.06-.41.12-.83.17-1.25.08-.63.15-1.27.22-1.91l0-.29c0-.3.06-.61.08-.91.06-.7.1-1.4.14-2.1l0-.39,0-.63c0-1,.07-2.1.07-3.15,0-2-.08-3.91-.23-5.77a69.43,69.43,0,0,0-1-7.93,74.25,74.25,0,0,0-4.48-15c-.56-1.36-1.18-2.72-1.83-4s-1.33-2.62-2.06-3.9c-1.08-1.9-2.26-3.78-3.5-5.58a74.22,74.22,0,0,0-29.71-25l-.45,1.85h0l-.17.77c-.13.58-.25,1.12-.36,1.67l-.12.6-.11.55-.24,1.3c0,.23-.08.47-.11.7l-.09.5c-.07.43-.14.85-.2,1.28,0,.25-.07.5-.1.75l-.07.49c0,.42-.11.83-.16,1.24L15,20.6,15,21l-.12,1.22c0,.3,0,.61-.07.91l0,.23c0,.46-.07.91-.1,1.37l-.06,1Z" transform="translate(-10.74 -3.58)"/><path class="cls-1" d="M73.58,156.92l-.29-.21a29.87,29.87,0,0,1-10.53-13.78l-.21-.57.6-.1a60.45,60.45,0,0,1,20.87,0l.6.1-.22.57a29.85,29.85,0,0,1-10.52,13.78Zm-9.66-13.77a28.91,28.91,0,0,0,9.66,12.53,28.77,28.77,0,0,0,9.66-12.53A59.64,59.64,0,0,0,63.92,143.15Z" transform="translate(-10.74 -3.58)"/><path class="cls-1" d="M90.72,162.32c-.67,0-1.36,0-2.11-.08l-.44,0-.24,0c-.47,0-.94-.09-1.4-.15l-.58-.1-.22,0q-.63-.1-1.26-.24l-.83-.19-1.2-.32-.82-.25c-.4-.13-.79-.26-1.19-.41l-.78-.29c-.41-.16-.8-.34-1.2-.52l-.22-.1-.5-.23c-.44-.21-.87-.44-1.3-.67l-.21-.11-.34-.19-.1-.06-.61-.38,1.26-1c.19-.15.37-.31.56-.48l.41-.35.56-.51.38-.36c.19-.18.37-.37.56-.56l.34-.34q.32-.33.63-.69l.23-.24.82-1,.19-.25.59-.75.27-.38c.16-.22.32-.43.47-.65l.29-.43.41-.63.28-.46c.13-.21.25-.42.37-.63s.19-.31.27-.47.24-.43.35-.65l.25-.48L85,146l.22-.48c.11-.24.21-.48.31-.71l.19-.46c.11-.25.2-.51.3-.76l.16-.43c.14-.4.28-.8.4-1.2a.85.85,0,0,0-.08-.71.49.49,0,0,0-.11-.14.77.77,0,0,0-.46-.26c-1.06-.22-2.17-.4-3.39-.58a62.29,62.29,0,0,0-21.28.58.86.86,0,0,0-.58.4.93.93,0,0,0-.08.71c.13.4.26.8.41,1.2l.15.4c.1.26.19.53.3.79l.2.46.3.7.23.49.32.66c.09.16.17.32.25.48l.35.65.27.47.37.63.29.46c.13.21.27.42.41.63l.29.43c.15.22.3.43.46.64l.28.39.59.75.19.25.82,1,.22.25.64.69.33.33.57.56.38.36.56.51.34.3.63.53,1.27,1-.72.44-.34.18-.21.11c-.43.24-.87.47-1.31.69l-.51.23-.21.09c-.39.18-.79.36-1.19.52l-.64.24-.15,0c-.39.15-.78.28-1.18.41l-.82.25-1.21.32-.82.19c-.42.09-.84.17-1.27.24l-.2,0-.59.1q-.7.09-1.41.15l-.23,0-.45,0c-.75,0-1.44.08-2.11.08a30,30,0,0,1-5.84-.57c-.94-.19-1.88-.42-2.81-.7a28.32,28.32,0,0,1-2.72-1,30,30,0,0,1-12.6-9.84q-.44-.59-.84-1.2l-.17-.25-.09-.15c-.18-.27-.36-.55-.53-.83-.06-.11-.13-.22-.19-.34l-.09-.15-.43-.77-.22-.41-.06-.13c-.13-.25-.26-.5-.38-.76s-.17-.37-.26-.56l-.33-.76c-.08-.2-.16-.39-.23-.59s-.2-.51-.29-.76l-.21-.6c-.09-.27-.17-.53-.25-.79l-.18-.6-.16-.64.3-.2.9-.6.9-.61.8-.55.93-.68.85-.63c.26-.19.53-.39.78-.59s.64-.5,1-.76l.76-.61c.26-.21.52-.41.77-.63s.59-.51.88-.77l.8-.69c.24-.21.48-.42.71-.64s.6-.56.89-.84l.76-.73c.23-.21.45-.41.66-.63s.64-.65,1-1l.69-.71.57-.59,1.07-1.2.61-.69c.15-.17.3-.33.44-.51.63-.72,1.23-1.47,1.83-2.23l.2-.25c.43-.55.83-1.07,1.23-1.61l.4-.54c.26-.37.53-.73.78-1.1l.53-.77.62-.9.54-.84.55-.86.46-.75c.2-.33.4-.65.59-1l.45-.78c.19-.32.37-.65.56-1l.43-.79c.18-.33.35-.66.52-1l.42-.81.51-1,.47.29.5.3.37.22,1.09.66,1.67,1,.31.17.75.41c.62.34,1.24.66,1.87,1l.37.19.53.27c.93.47,1.86.92,2.8,1.34,2.48,1.13,5,2.14,7.39,3a.83.83,0,0,0,.58,0c1.21-.43,2.44-.9,3.68-1.4s2.48-1,3.71-1.6c.94-.42,1.87-.87,2.8-1.34l.56-.28.35-.18c.62-.32,1.24-.64,1.86-1,.24-.12.47-.25.7-.38l.36-.2c.56-.31,1.12-.63,1.67-1,.37-.21.73-.43,1.09-.65l.35-.2.53-.32.47-.29.92,1.82.52,1c.14.27.29.53.44.8l.54,1,.46.78c.18.3.35.6.54.89l.51.84c.19.3.38.6.58.9l.52.8c.17.27.35.53.53.79l.61.89.76,1.06.42.58c.4.54.81,1.08,1.23,1.61.67.85,1.35,1.69,2,2.49l.46.51.49.55c.39.45.78.9,1.18,1.33l.57.59.72.75c.31.32.61.65.93,1l.64.62.75.71.92.87.73.65.71.62,1,.83.72.59.79.63c.32.27.65.53,1,.79l.8.59.81.6c.31.24.63.48,1,.71l.83.56.85.58c.3.21.59.41.89.6l.31.2-.17.64-.18.6c-.08.27-.16.53-.25.79s-.13.4-.21.6-.18.51-.28.77l-.24.58-.33.76-.26.57c-.12.25-.25.5-.38.75l-.28.55c-.14.25-.28.51-.43.76l-.29.5-.52.83-.26.4c-.27.41-.56.81-.85,1.2a29.75,29.75,0,0,1-2.94,3.4q-.52.53-1.08,1a29.31,29.31,0,0,1-4.69,3.47c-.41.25-.83.48-1.26.71-.84.45-1.72.86-2.61,1.23A29.6,29.6,0,0,1,90.72,162.32ZM77,157.8c.4.22.81.44,1.22.64.15.08.31.14.47.21l.23.11c.38.17.76.34,1.15.49l.76.29,1.14.4.79.23c.39.12.78.22,1.17.31l.8.19c.4.09.81.16,1.22.23l.23,0,.54.08c.45.07.9.11,1.35.15l.26,0,.41,0c.72,0,1.38.07,2,.07a28.61,28.61,0,0,0,11-2.16,25.22,25.22,0,0,0,2.52-1.19l1.22-.68a29,29,0,0,0,4.53-3.35c.35-.32.7-.65,1-1a27.69,27.69,0,0,0,2.84-3.29c.29-.38.56-.77.83-1.16l.25-.39c.17-.26.34-.53.5-.8l.28-.48c.14-.25.29-.49.42-.74s.15-.29.22-.43l0-.09c.12-.25.25-.49.36-.73l.25-.55c.11-.24.22-.49.32-.73s.16-.38.23-.57.19-.49.28-.74.13-.39.2-.58l.24-.76.15-.5-.61-.42-.84-.57-.85-.58-1-.73-.79-.58-.83-.62-1-.8-.78-.63c-.24-.2-.49-.39-.73-.6s-.66-.56-1-.85l-.69-.61-.76-.67c-.32-.29-.63-.59-.94-.89l-.73-.7-.67-.64c-.32-.32-.63-.65-1-1l-.71-.74-.59-.61-1.2-1.34-.47-.54c-.16-.18-.33-.36-.48-.54-.69-.81-1.38-1.66-2.06-2.52-.42-.54-.84-1.08-1.24-1.63l-.41-.56-.8-1.11-.61-.89-.54-.8-.48-.74-.63-1-.48-.78c-.23-.37-.41-.67-.59-1l-.46-.79L93,113l-.45-.82-.52-1-.44-.87-.08,0-.34.2-1.1.66-1.69,1-.36.19c-.23.14-.47.27-.71.4-.62.34-1.25.66-1.89,1l-.34.18-.57.29c-.94.47-1.88.92-2.83,1.36-1.25.56-2.51,1.11-3.75,1.61s-2.5,1-3.72,1.41a1.79,1.79,0,0,1-1.25,0c-2.46-.86-5-1.88-7.47-3-.95-.44-1.9-.89-2.84-1.36L62.1,114l-.36-.19c-.63-.32-1.26-.64-1.88-1l-.77-.43-.31-.17q-.84-.47-1.68-1L56,110.61l-.4-.25-.06,0,0,0c-.13.28-.27.55-.42.82s-.35.67-.53,1-.29.54-.44.81-.37.66-.56,1l-.45.79-.6,1-.47.76c-.18.29-.37.58-.56.87l-.55.85c-.2.31-.41.62-.62.92l-.53.78-.8,1.11-.4.55c-.4.54-.81,1.07-1.22,1.6l-.23.28c-.61.77-1.22,1.53-1.85,2.27-.15.18-.31.35-.47.52l-.6.68-1.08,1.22-.59.61-.68.71-1,1-.68.65-.75.72c-.3.29-.6.58-.91.86l-.74.66-.78.68-.9.79-.8.64-.75.61-1,.78-.81.6-.84.62c-.31.24-.63.47-.95.7s-.55.38-.83.57l-.88.6-.62.42.15.5.24.76.21.58c.08.24.18.49.27.74l.23.57c.1.24.21.48.32.72s.16.37.25.55l.36.73.07.14c.07.12.13.26.2.38s.28.5.42.75l.27.47.51.81.25.38c.26.4.53.79.82,1.17a28.64,28.64,0,0,0,2.84,3.29c.68.67,1.39,1.31,2.13,1.91a28.46,28.46,0,0,0,7.2,4.3,27.43,27.43,0,0,0,2.63.94c.89.27,1.81.5,2.72.68a29.46,29.46,0,0,0,5.64.54c.65,0,1.32,0,2-.07l.41,0,.25,0c.45,0,.91-.08,1.36-.15l.56-.09.21,0c.41-.07.81-.14,1.22-.23l.79-.19c.4-.09.78-.19,1.17-.31s.53-.15.79-.24.77-.25,1.14-.39l.15,0,.62-.24c.39-.15.77-.32,1.15-.49l.21-.1.49-.22c.41-.2.82-.42,1.22-.64l-.12-.09-.58-.49-.42-.37-.58-.52-.39-.37-.58-.58-.34-.35c-.23-.23-.45-.47-.66-.71l-.23-.25c-.29-.33-.57-.66-.85-1l-.2-.25c-.2-.26-.41-.52-.6-.78l-.29-.39L63.9,151l-.25-.38-.47-.71-.29-.48-.39-.65-.28-.49-.36-.66-.25-.5c-.12-.22-.23-.45-.34-.68l-.23-.5c-.11-.24-.21-.48-.32-.73l-.2-.47c-.11-.27-.21-.55-.32-.82l-.15-.41c-.15-.41-.29-.82-.42-1.24a1.88,1.88,0,0,1,1.42-2.4,63.52,63.52,0,0,1,21.62-.58c1.24.17,2.37.37,3.44.58a1.84,1.84,0,0,1,1,.57,2.34,2.34,0,0,1,.24.31,1.88,1.88,0,0,1,.17,1.52c-.13.42-.27.83-.42,1.24l-.15.4c-.11.3-.21.57-.32.83l-.2.47c-.1.25-.21.49-.32.73l-.18.41-.38.78-.26.49c-.12.23-.24.44-.36.66l-.28.5-.38.64-.29.48-.43.65-.3.44-.47.67-.29.39-.61.78-.2.25c-.27.34-.55.67-.84,1l-.23.25L80,155l-.35.35c-.19.19-.38.39-.58.58l-.39.36-.57.53-.42.37-.59.49Z" transform="translate(-10.74 -3.58)"/><path class="cls-1" d="M90.69,101.7,89.6,98.3c-.32-1-.62-2-.9-3,0-.2-.11-.4-.16-.6l-.1-.39c-.18-.68-.35-1.37-.51-2.06-.08-.32-.14-.65-.21-1l0-.21c-.13-.64-.27-1.27-.39-1.91-.07-.42-.15-.83-.22-1.25-.1-.63-.2-1.25-.29-1.88-.06-.42-.12-.84-.17-1.26-.08-.65-.15-1.3-.22-1.94l0-.37c0-.28,0-.56-.08-.85-.06-.7-.1-1.41-.14-2.12l0-.39c0-.22,0-.43,0-.65,0-1.06-.07-2.11-.07-3.18,0-2,.08-4,.23-5.88.11-1.35.25-2.71.43-4s.38-2.65.63-3.95c.42-2.24.94-4.48,1.56-6.66.41-1.46.87-2.91,1.36-4.32s1-2.83,1.62-4.2A74.4,74.4,0,0,1,103.56,27c.64-.76,1.29-1.5,2-2.23.85-.94,1.62-1.75,2.34-2.46,1-1.06,2.13-2.09,3.24-3.07,1.66-1.48,3.42-2.91,5.21-4.24.6-.44,1.21-.88,1.83-1.31.91-.64,1.91-1.29,3-2,2.21-1.38,4.47-2.64,6.72-3.75.68-.34,1.37-.67,2.07-1l.54-.25.15.58c.22.81.42,1.63.61,2.45l.24,1.05c.1.48.21.95.31,1.43l.24,1.23c.08.42.16.84.23,1.26l.12.69.11.7.18,1.11.17,1.26c0,.42.11.83.16,1.25l.09.88,0,.38c.05.42.09.84.13,1.26s.06.65.08,1v.17c0,.46.07.92.1,1.38s.05.77.06,1.16l.06,1.24-.3.14-.59.3-.58.3-1.13.58-1.3.72-.29.16-1.08.61-1.18.72-.44.27-1,.6-1.11.74-.49.33-.93.63-1,.74-.53.38-.91.67c-.35.26-.69.53-1,.8l-.55.43-.82.66-1,.83-.57.49-.76.66c-.34.3-.66.61-1,.91l-.49.45-.75.71c-.31.29-.6.59-.9.89l-.59.59-.66.68c-.28.29-.56.59-.83.89l-.58.63-.66.72-.8.94-.58.68-.59.7-.8,1-.53.68c-.19.23-.37.47-.55.7s-.52.72-.78,1.08l-.49.69c-.18.23-.35.47-.51.7l-.77,1.15-.51.79c-.14.2-.27.4-.4.61-.31.48-.6,1-.9,1.47l-.37.62c-.11.17-.21.34-.31.52-.51.88-1,1.77-1.48,2.67a75.72,75.72,0,0,0-8,24.81,76.68,76.68,0,0,0-.72,10.51c0,.82,0,1.63,0,2.44ZM87.12,79.42c0,.7.09,1.4.14,2.1,0,.28.06.55.08.83l0,.37c.06.63.13,1.27.21,1.91.06.42.11.83.17,1.24.09.62.19,1.24.29,1.86.07.41.15.83.22,1.23.12.63.25,1.26.38,1.89l0,.21c.07.32.13.64.21,1,.15.68.33,1.36.51,2l.1.39s0,.07,0,.11A77.15,77.15,0,0,1,90.27,85a75.74,75.74,0,0,1,2.17-10.39A77.34,77.34,0,0,1,98.33,59.9c.48-.91,1-1.81,1.5-2.71.1-.18.21-.36.32-.54l.37-.6c.3-.51.6-1,.91-1.5.13-.21.27-.42.41-.63l.51-.78.78-1.17.52-.72.49-.68c.26-.37.53-.74.8-1.1l.56-.72.53-.68.81-1,.61-.72.58-.68c.27-.32.53-.64.81-1l.67-.74.58-.63.84-.9.68-.7.59-.58c.3-.31.6-.61.91-.91s.51-.49.77-.73l.48-.44,1-.93c.25-.23.52-.45.78-.67l.56-.49,1-.85.84-.67.54-.42,1-.82.93-.68.52-.38,1-.76.94-.63.49-.33c.38-.26.75-.51,1.13-.75s.66-.42,1-.62l.43-.27c.4-.24.8-.49,1.21-.72s.72-.42,1.09-.62l.29-.17c.44-.24.87-.49,1.32-.72s.76-.4,1.15-.59l.57-.3.32-.16,0-.58-.06-1.15c0-.46-.06-.91-.1-1.36v-.17c0-.33-.05-.65-.08-1L132.17,21l0-.39-.09-.86c-.05-.41-.1-.82-.16-1.23l-.17-1.26c0-.36-.11-.73-.17-1.09l-.12-.71c0-.22-.07-.44-.11-.67-.07-.41-.15-.82-.23-1.24l-.24-1.22c-.09-.47-.2-.94-.3-1.41l-.23-1c-.15-.62-.3-1.23-.46-1.85l-1.5.72a73.76,73.76,0,0,0-6.62,3.7c-1.13.7-2.11,1.35-3,2l-1.8,1.3c-1.77,1.31-3.5,2.72-5.14,4.18-1.09,1-2.17,2-3.2,3-.71.71-1.46,1.51-2.31,2.43-.66.73-1.3,1.46-1.93,2.21a73.69,73.69,0,0,0-11.59,19c-.56,1.35-1.1,2.74-1.59,4.14s-.94,2.82-1.34,4.26c-.61,2.15-1.13,4.37-1.54,6.58-.25,1.28-.46,2.59-.63,3.89s-.31,2.67-.42,4c-.15,1.86-.22,3.81-.22,5.8,0,1,0,2.1.07,3.14,0,.21,0,.42,0,.62Z" transform="translate(-10.74 -3.58)"/><path class="cls-1" d="M73.58,116l-.17-.06c-2.23-.81-4.52-1.75-6.79-2.78-.88-.4-1.76-.83-2.64-1.26l-.81-.41-1.84-1c-.3-.16-.59-.31-.88-.48-.63-.35-1.26-.7-1.89-1.07l-1.84-1.11,1.26-.42c.78-.27,1.56-.53,2.35-.75s1.62-.44,2.42-.62l.45-.11c.78-.17,1.57-.32,2.36-.45l.46-.08q1.24-.19,2.49-.33a49.09,49.09,0,0,1,10.14,0q1.26.14,2.49.33l.46.08c.8.13,1.58.28,2.37.45l.44.11c.8.18,1.6.38,2.38.6s1.62.5,2.4.77l1.15.39-1.74,1.14c-.62.37-1.25.72-1.88,1.07l-.88.48c-.61.33-1.23.65-1.85,1l-.81.41c-.87.43-1.75.86-2.64,1.26-1.14.52-2.28,1-3.41,1.47s-2.26.9-3.38,1.31ZM59.1,108.07l1.83,1.05.87.47c.61.32,1.21.64,1.83,1l.8.41c.86.43,1.73.85,2.61,1.25,2.19,1,4.39,1.89,6.54,2.68,1-.38,2.11-.79,3.17-1.23s2.25-.94,3.37-1.45c.88-.4,1.75-.82,2.62-1.25l.8-.41,1.82-1,.87-.48c.62-.34,1.23-.69,1.84-1-.5-.17-1-.32-1.52-.47-.8-.23-1.58-.42-2.36-.6l-.44-.1q-1.16-.25-2.31-.45l-.46-.08c-.8-.12-1.61-.24-2.43-.32a48.56,48.56,0,0,0-9.94,0c-.81.08-1.62.2-2.43.33l-.45.07c-.78.13-1.55.28-2.32.45L63,107c-.78.18-1.56.37-2.33.59C60.11,107.74,59.6,107.9,59.1,108.07Z" transform="translate(-10.74 -3.58)"/><path class="cls-1" d="M73.61,195.42l-.16,0A70,70,0,0,1,65,191.86c-1.62-.8-3.23-1.68-4.77-2.61-1-.62-2.07-1.27-3.06-1.94a68.59,68.59,0,0,1-25-30.37c-.63-1.49-1.22-3-1.73-4.52,0-.11-.07-.23-.11-.34l-1-3.19,1.84,2.48c.25.33.51.65.78,1l.38.48c.09.11.18.23.28.34.52.6,1.06,1.18,1.61,1.73a31.59,31.59,0,0,0,39.12,4.29l.27-.17.27.17A31.57,31.57,0,0,0,113,154.89a30.29,30.29,0,0,0,3.11-3.6l0,0,1.81-2.42-1,3.19c0,.15-.09.3-.14.44-.51,1.51-1.1,3-1.73,4.53a68.81,68.81,0,0,1-8.12,14.22c-.7,1-1.45,1.91-2.22,2.85a69.57,69.57,0,0,1-6.18,6.55c-1.32,1.22-2.69,2.41-4.1,3.52a68.51,68.51,0,0,1-9,6,70.18,70.18,0,0,1-11.65,5.2ZM32.16,154.2c.3.79.62,1.57,1,2.35a67.54,67.54,0,0,0,24.62,29.93c1,.66,2,1.3,3,1.91,1.53.91,3.11,1.78,4.71,2.57a66.86,66.86,0,0,0,8.16,3.4,67,67,0,0,0,11.31-5.07,68.22,68.22,0,0,0,8.86-5.95c1.38-1.1,2.74-2.27,4-3.47a67.62,67.62,0,0,0,6.09-6.46c.76-.92,1.5-1.87,2.2-2.81a67.46,67.46,0,0,0,8-14c.36-.83.69-1.66,1-2.5-.46.52-.94,1-1.43,1.51a32.6,32.6,0,0,1-40.09,4.6,32.62,32.62,0,0,1-40.1-4.6C33,155.16,32.59,154.69,32.16,154.2Z" transform="translate(-10.74 -3.58)"/><path class="cls-1" d="M93,106.16l-.24-1.8c-.1-.92-.19-1.79-.25-2.66-.17-2-.25-4-.25-6a75.19,75.19,0,0,1,1.1-12.81,73,73,0,0,1,1.7-7.48c.35-1.22.73-2.46,1.14-3.66a74.15,74.15,0,0,1,4.54-10.56c.46-.87.93-1.73,1.42-2.58l.3-.49.33-.56c.3-.49.59-1,.9-1.47.13-.21.27-.42.41-.63l.41-.63.8-1.2c.16-.23.32-.46.49-.68l.36-.51c.29-.4.57-.8.87-1.2l.54-.7.35-.45c.3-.39.6-.78.92-1.16l.63-.77.21-.24c.36-.43.7-.84,1-1.24l.73-.8.16-.18c.37-.4.73-.8,1.1-1.19s.55-.57.83-.85l.1-.11c.38-.38.75-.76,1.14-1.13s.64-.62,1-.92L117,40.4l1-.89c.4-.35.81-.69,1.22-1l1-.86,1.26-1,1.07-.81,1.29-.93,1.12-.78,1.32-.87,1.14-.73c.45-.29.91-.56,1.36-.83l.1-.06L130,31c.47-.27.93-.52,1.4-.77l.14-.08,1-.56,1.11-.56,0,1.43a89.87,89.87,0,0,1-7.91,37.09,89.56,89.56,0,0,1-5.09,9.76c-1.26,2.08-2.62,4.14-4,6.13-.71,1-1.45,2-2.21,2.94-1.51,1.93-3.13,3.82-4.8,5.64a92.67,92.67,0,0,1-8.15,7.81c-1,.81-1.94,1.61-2.93,2.37s-1.69,1.29-2.54,1.9l-.51.36-.33.23-1.46,1Zm39.64-75.49L132,31l-.14.08-1.38.76-1,.62-.1.06q-.68.39-1.35.81l-1.12.72-1.31.86-1.1.77-1.27.92-1.06.8-1.24,1-1,.84-1.2,1-1,.88c-.39.35-.77.71-1.15,1.07s-.65.6-1,.91-.75.74-1.12,1.12l-.1.1-.83.84-1.07,1.17-.17.19-.71.78c-.35.4-.68.8-1,1.2l-.23.27-.63.75-.9,1.15-.35.44-.53.7c-.29.38-.57.78-.85,1.17l-.37.51-.47.67c-.27.39-.53.79-.79,1.18L105,56l-.39.6c-.31.48-.6,1-.89,1.46l-.33.56-.29.47c-.48.84-1,1.69-1.4,2.55a73.21,73.21,0,0,0-4.48,10.41c-.4,1.19-.78,2.41-1.12,3.61a71.21,71.21,0,0,0-1.68,7.39,74,74,0,0,0-1.09,12.63c0,2,.09,4,.25,5.93.06.86.15,1.72.25,2.57l0,.23.77-.54.34-.24.5-.34c.84-.61,1.67-1.24,2.5-1.88,1-.76,2-1.55,2.9-2.35a90.59,90.59,0,0,0,8.06-7.72c1.66-1.8,3.25-3.67,4.75-5.58.75-1,1.49-1.94,2.19-2.91,1.41-2,2.75-4,4-6.06a89.36,89.36,0,0,0,5-9.65A88.8,88.8,0,0,0,132.66,30.67Z" transform="translate(-10.74 -3.58)"/><path class="cls-1" d="M54.14,106.16l-.68-.46-1.46-1-.35-.24-.5-.35h0c-.84-.62-1.69-1.24-2.51-1.89a88,88,0,0,1-11-10.15c-1.67-1.8-3.28-3.69-4.79-5.62A90.14,90.14,0,0,1,21.4,67.57c-.65-1.45-1.27-2.94-1.85-4.42a91.06,91.06,0,0,1-3-9c-.21-.77-.4-1.53-.59-2.3a92.34,92.34,0,0,1-1.74-9.36,93.38,93.38,0,0,1-.77-12V29l1.11.56,1,.53.18.1c.47.26.94.51,1.4.78s.78.45,1.17.68.91.54,1.36.83l1.15.73,1.32.87,1.11.78,1.29.93,1.08.81c.42.33.84.65,1.25,1l1.05.85,1.21,1,1,.89,1.18,1.09c.33.3.65.61,1,.92l1.14,1.14.09.09.84.86c.37.39.73.79,1.1,1.19l.18.2.7.78,1,1.18.25.3.64.77c.32.39.63.79,1,1.2l.3.39c.19.24.38.48.56.73L41,52.43l.37.52.48.67c.28.42.56.84.83,1.26l.38.57c.14.21.28.42.41.63.33.52.64,1,.95,1.57l.26.43c.11.17.21.35.31.52.49.85,1,1.71,1.43,2.58.59,1.12,1.16,2.28,1.69,3.45a72.68,72.68,0,0,1,4,10.82,74.08,74.08,0,0,1,2.8,20.24c0,2-.09,4-.25,6-.07.86-.15,1.73-.25,2.59Zm-2.4-2.88.48.34.36.25.77.54,0-.21c.1-.86.18-1.71.25-2.56.16-2,.24-4,.24-6a73.31,73.31,0,0,0-2.75-20,72.64,72.64,0,0,0-3.94-10.67c-.53-1.15-1.09-2.29-1.67-3.4q-.67-1.29-1.41-2.55c-.09-.16-.19-.33-.3-.49l-.26-.45c-.31-.52-.62-1-.94-1.54-.13-.21-.26-.41-.4-.61l-.38-.58c-.27-.42-.54-.83-.82-1.24-.15-.22-.31-.44-.47-.65L40.16,53c-.28-.4-.56-.79-.85-1.18l-.55-.71-.31-.4c-.31-.39-.61-.79-.93-1.18l-.63-.76-.2-.23c-.38-.46-.71-.85-1-1.23l-.7-.77-.18-.19c-.35-.4-.71-.79-1.08-1.18l-.82-.84-.1-.1c-.37-.38-.74-.75-1.12-1.12l-1-.91-1.16-1.07-1-.88-1.2-1-1-.84c-.4-.33-.82-.65-1.23-1L24,36.64c-.42-.31-.84-.62-1.27-.92L21.63,35c-.43-.29-.86-.58-1.3-.86s-.75-.49-1.13-.72-.89-.55-1.34-.81l-1.15-.68-1.38-.76-.19-.1-.65-.35a91.88,91.88,0,0,0,.77,11.64A89.69,89.69,0,0,0,17,51.56c.18.76.37,1.52.58,2.28a89.91,89.91,0,0,0,2.93,8.95c.57,1.46,1.18,2.94,1.82,4.37A89.44,89.44,0,0,0,33.59,85.82c1.49,1.91,3.09,3.78,4.74,5.56a87.43,87.43,0,0,0,10.92,10q1.23,1,2.49,1.86Z" transform="translate(-10.74 -3.58)"/><path class="cls-1" d="M135.86,27.61c0-.95-.07-1.9-.12-2.85q-.18-2.85-.52-5.69t-.87-5.64q-.78-4.21-1.95-8.34a1.39,1.39,0,0,0-.27-.51,1.31,1.31,0,0,0-.46-.35l-.14-.05a1.57,1.57,0,0,0-.43-.09,1.38,1.38,0,0,0-.56.12A77.13,77.13,0,0,0,85.08,61,75.16,75.16,0,0,0,84,69.2c-.16,2-.24,4-.24,6.06a76.76,76.76,0,0,0,4.85,27c.36,1,.74,2,1.16,2.94v0l-.1,0c-.77-.26-1.54-.5-2.32-.72l-.55-.15c-.73-.2-1.47-.39-2.21-.55l-.23-.06c-.8-.17-1.61-.32-2.42-.46l-.58-.09c-.82-.13-1.64-.24-2.47-.33-.45,0-.89-.07-1.33-.1-1.33-.11-2.65-.18-4-.18a52.42,52.42,0,0,0-5.3.28c-.83.09-1.66.2-2.48.33l-.58.09c-.81.14-1.62.29-2.42.46l-.23.06c-.74.16-1.47.35-2.2.55l-.55.15c-.78.22-1.56.46-2.32.72l-.1,0a.42.42,0,0,1,0-.1c.39-.93.76-1.89,1.13-2.86a77.62,77.62,0,0,0,2.94-9.87c.25-1.12.48-2.24.68-3.36a76.43,76.43,0,0,0,1.14-10.28c.05-1.15.07-2.31.07-3.48,0-2.06-.07-4.09-.23-6-.05-.69-.11-1.38-.19-2.07q-.21-2.07-.54-4.14-.16-1-.36-2.07A77.15,77.15,0,0,0,16.62,4.2a1.22,1.22,0,0,0-.52-.11h-.05a1.24,1.24,0,0,0-.56.13,1.36,1.36,0,0,0-.73.86C14.5,6,14.25,6.91,14,7.83a93.4,93.4,0,0,0-2.38,14.06c0,.49-.07,1-.11,1.48s-.08.92-.11,1.37q-.06,1.07-.09,2.13c0,.25,0,.49,0,.74h0c0,1,0,1.91,0,2.86a92.25,92.25,0,0,0,8.1,38q1.56,3.45,3.37,6.77a94.78,94.78,0,0,0,6,9.55,92.44,92.44,0,0,0,7.18,8.77A90.78,90.78,0,0,0,47.26,104c.85.67,1.72,1.31,2.6,1.94l.43.31c.84.6,1.69,1.18,2.54,1.75l.21.15c-.07.15-.14.3-.22.45s-.27.54-.41.81l-.51,1c-.15.26-.29.53-.43.79l-.55,1-.45.77c-.19.33-.38.65-.58,1s-.3.5-.46.75-.41.66-.62,1l-.46.72-.68,1-.45.65-.79,1.1-.39.54c-.4.54-.81,1.07-1.22,1.6q-1,1.28-2,2.49l-.72.81c-.47.53-.94,1.07-1.42,1.59-.3.33-.63.64-.94,1s-.85.9-1.29,1.33-.72.68-1.07,1-.83.8-1.26,1.19-.76.66-1.14,1-.85.75-1.28,1.11-.8.63-1.2.95l-1.31,1c-.4.3-.82.59-1.23.89s-.9.67-1.37,1-.83.55-1.25.83-1,.66-1.48,1h0a1.21,1.21,0,0,0-.3.25,1.37,1.37,0,0,0-.33,1.08,70.14,70.14,0,0,0,3.14,13.4c.53,1.57,1.13,3.14,1.79,4.67a70.93,70.93,0,0,0,43.06,39.83,1.36,1.36,0,0,0,.86,0,71,71,0,0,0,43-39.78c.66-1.54,1.26-3.12,1.8-4.68A71.56,71.56,0,0,0,122,139.81h0a1.5,1.5,0,0,0,0-.2h0a1.42,1.42,0,0,0-.12-.54c0-.05,0-.1-.07-.15l0-.06a1.77,1.77,0,0,0-.16-.22l-.09-.07a1.24,1.24,0,0,0-.18-.14l0,0c-.47-.3-.93-.62-1.4-.93l-1.29-.85c-.49-.34-1-.7-1.44-1.05s-.78-.55-1.16-.84-1-.79-1.5-1.19l-1-.8c-.47-.39-.93-.8-1.39-1.2l-1-.9c-.47-.43-.93-.88-1.39-1.32l-.94-.88c-.52-.51-1-1-1.52-1.56l-.72-.74c-.66-.71-1.29-1.43-1.93-2.16l-.21-.24c-.7-.82-1.38-1.65-2-2.5-.42-.53-.83-1.07-1.23-1.61l-.4-.55L99.94,118l-.46-.66-.67-1-.47-.72c-.21-.32-.42-.65-.62-1s-.31-.5-.46-.75-.39-.65-.58-1l-.45-.78c-.19-.32-.37-.65-.55-1l-.43-.79-.51-1c-.14-.26-.27-.53-.41-.8l-.21-.43.21-.15c.84-.56,1.68-1.13,2.52-1.73l.45-.32c.87-.63,1.74-1.28,2.6-2a92.21,92.21,0,0,0,11.36-10.43,93.77,93.77,0,0,0,11.33-15.08,93,93,0,0,0,5.22-10,92.18,92.18,0,0,0,8.1-38C135.91,29.52,135.89,28.57,135.86,27.61ZM86.72,69.42c.11-1.35.25-2.7.42-4s.39-2.64.63-3.93q.63-3.36,1.55-6.62c.41-1.44.87-2.87,1.36-4.28s1-2.81,1.6-4.18a74.09,74.09,0,0,1,11.66-19.11q1-1.14,2-2.22c.76-.84,1.53-1.65,2.32-2.45,1-1.05,2.12-2.06,3.22-3.05,1.66-1.47,3.39-2.88,5.18-4.21.6-.44,1.21-.87,1.82-1.3,1-.69,2-1.34,3-2a73.45,73.45,0,0,1,6.67-3.73c.68-.34,1.37-.66,2.06-1,.21.82.41,1.63.61,2.45l.18.82.36,1.64.18,1c.1.5.2,1,.29,1.49.06.35.11.71.17,1.06s.16.95.23,1.43l.15,1.1.18,1.4.12,1.12c0,.46.1.92.14,1.38s.06.77.09,1.15.07.91.1,1.37,0,.77.06,1.16,0,.6,0,.9c-.34.16-.67.34-1,.51l-1.32.68c-.47.25-.93.51-1.39.77l-1.29.73-1.37.83-1.25.77c-.45.29-.89.59-1.33.89s-.82.54-1.22.82-.86.62-1.3.94-.79.57-1.17.86l-1.27,1-1.14.9-1.23,1.05-1.1.95-1.2,1.1-1,1c-.4.38-.78.77-1.17,1.16l-1,1c-.38.4-.75.81-1.12,1.22s-.64.69-1,1-.73.85-1.09,1.28l-.9,1.06c-.36.44-.7.89-1,1.34s-.57.71-.84,1.07-.68.94-1,1.41l-.77,1.08c-.35.5-.68,1-1,1.53-.23.35-.46.68-.68,1-.36.57-.7,1.15-1,1.74l-.54.89c-.51.88-1,1.78-1.48,2.69a75.41,75.41,0,0,0-5.85,14.65,76.91,76.91,0,0,0-2.17,10.32A77.7,77.7,0,0,0,90,95.69c0,.82,0,1.64,0,2.46-.32-1-.62-2-.9-3-.09-.33-.16-.66-.25-1q-.27-1-.51-2c-.09-.39-.17-.79-.26-1.18-.13-.63-.26-1.26-.38-1.89-.08-.42-.15-.83-.22-1.24-.11-.63-.2-1.25-.29-1.88l-.18-1.25q-.12-1-.21-1.92l-.12-1.21c-.06-.7-.1-1.41-.14-2.11l-.06-1c0-1-.07-2.1-.07-3.16C86.49,73.26,86.57,71.3,86.72,69.42Zm6.72,43.34.55,1c.15.26.3.53.46.79l.58,1,.47.77.63,1,.48.73c.22.34.45.67.68,1l.47.67c.25.37.52.74.79,1.1.13.19.26.38.4.56.4.54.82,1.09,1.24,1.62.66.85,1.34,1.69,2,2.5.25.3.51.57.76.86.46.52.91,1,1.38,1.55.31.33.63.65.94,1s.86.91,1.3,1.35.68.65,1,1,.85.83,1.29,1.23.73.64,1.09,1,.88.78,1.33,1.16.76.61,1.14.92.9.74,1.36,1.1.8.59,1.2.88.92.7,1.39,1,.83.56,1.25.85l1.34.91a2.68,2.68,0,0,0-.07.27l-.18.6-.24.77-.21.59c-.09.25-.18.5-.28.75s-.15.39-.23.58l-.33.75-.25.55-.37.75-.28.53-.42.75-.29.49c-.16.27-.34.54-.51.82l-.26.39c-.26.4-.54.79-.83,1.18a29.77,29.77,0,0,1-2.9,3.35c-.34.34-.69.67-1,1a30.33,30.33,0,0,1-4.61,3.41l-1.24.7c-.84.44-1.7.85-2.57,1.21a29.37,29.37,0,0,1-11.19,2.2c-.69,0-1.38,0-2.07-.08l-.67-.07c-.46,0-.92-.08-1.38-.15l-.79-.13c-.41-.07-.83-.14-1.24-.23l-.81-.19-1.18-.31-.81-.25c-.39-.12-.78-.26-1.16-.4l-.78-.29-1.17-.51c-.24-.1-.48-.2-.71-.32-.43-.21-.86-.43-1.28-.66l-.54-.29-.09-.06.27-.21.43-.35.58-.48.41-.36.57-.52.38-.36.58-.57.34-.35.65-.7c.07-.08.15-.16.22-.25.29-.32.56-.64.83-1l.2-.25.6-.76.28-.39c.16-.22.32-.43.47-.66l.29-.43c.15-.22.29-.43.42-.64l.29-.47c.13-.21.26-.42.38-.64l.27-.48.36-.65.25-.49.33-.68c.08-.16.15-.32.23-.49s.21-.47.31-.72.14-.31.2-.46.21-.54.31-.81l.15-.4c.15-.4.29-.81.41-1.22a1.39,1.39,0,0,0-.12-1.11,1.3,1.3,0,0,0-.18-.23,1.38,1.38,0,0,0-.73-.42c-1.14-.22-2.28-.41-3.42-.58a63.58,63.58,0,0,0-21.45.58,1.38,1.38,0,0,0-.91.65,1.35,1.35,0,0,0-.13,1.11c.13.41.27.82.41,1.22l.15.4.32.81c.06.16.13.31.19.46s.21.49.32.72.15.33.23.49.21.45.33.68.16.33.25.49.23.43.35.65l.27.48.39.64.28.47.42.64.29.43.47.66.29.39c.19.26.39.51.6.77l.19.24c.27.34.55.66.83,1l.23.25c.21.24.43.47.65.7l.34.34.57.58.39.36.56.52.41.36.58.48.43.35.27.21-.08.06-.54.28c-.43.24-.85.46-1.29.67-.23.12-.47.22-.7.32-.39.18-.78.35-1.18.51l-.77.29c-.39.14-.77.28-1.16.4l-.81.25L63.4,161l-.81.19c-.41.09-.82.16-1.24.23l-.78.13c-.46.07-.92.11-1.38.15l-.67.07c-.69,0-1.38.08-2.08.08a29.55,29.55,0,0,1-5.74-.56c-.93-.19-1.86-.42-2.77-.69a28.24,28.24,0,0,1-2.67-.95,29.08,29.08,0,0,1-7.33-4.38c-.75-.61-1.47-1.26-2.16-1.94a29.77,29.77,0,0,1-2.9-3.35L32,148.77c-.08-.14-.17-.27-.25-.4s-.35-.54-.52-.82-.18-.32-.28-.48-.29-.5-.42-.76-.19-.35-.28-.53-.25-.49-.36-.74-.18-.37-.26-.56-.22-.49-.32-.74-.16-.39-.23-.58-.2-.5-.29-.75-.14-.4-.2-.59-.17-.52-.25-.78-.12-.39-.17-.59a2.68,2.68,0,0,1-.07-.27l1.35-.92c.42-.29.84-.56,1.26-.86s.91-.67,1.36-1,.82-.59,1.22-.9l1.34-1.07c.38-.32.78-.62,1.16-.94s.86-.76,1.29-1.13.76-.65,1.12-1,.85-.8,1.27-1.21l1.06-1c.44-.44.86-.9,1.29-1.34s.63-.64.94-1c.46-.5.9-1,1.35-1.53.26-.29.53-.58.79-.88.62-.73,1.23-1.49,1.83-2.25l.21-.25,0,0c.41-.52.82-1.05,1.21-1.59.14-.18.27-.37.4-.55.27-.37.54-.73.8-1.1l.45-.67c.23-.34.47-.67.69-1l.47-.72c.21-.33.43-.66.64-1l.46-.75c.2-.33.4-.66.59-1s.31-.52.46-.78.37-.65.55-1l.44-.79.53-1,.42-.81c.08-.18.18-.35.26-.52l.88.52,1.1.66,1.68,1,1.07.6c.62.33,1.24.66,1.87,1l.91.46q1.4.7,2.82,1.35c2.48,1.13,5,2.15,7.42,3a1.48,1.48,0,0,0,.46.08h0a1.44,1.44,0,0,0,.46-.08c1.22-.43,2.46-.9,3.7-1.4s2.49-1,3.73-1.61q1.41-.65,2.82-1.35l.9-.46,1.88-1,1.06-.59,1.69-1,1.09-.66.88-.52.27.51c.13.28.27.55.42.82s.34.66.52,1Zm-9.51,30A29.49,29.49,0,0,1,73.58,156.3a29.49,29.49,0,0,1-10.35-13.55A61,61,0,0,1,83.93,142.75ZM60.47,107.12h0c.78-.22,1.56-.42,2.36-.6l.44-.1c.77-.17,1.55-.33,2.33-.46l.46-.07q1.23-.19,2.46-.33a49.79,49.79,0,0,1,5-.26,47,47,0,0,1,5,.26q1.25.14,2.46.33l.46.07c.78.13,1.56.29,2.34.46l.44.1c.79.18,1.58.38,2.36.6h0c.79.22,1.56.47,2.33.74l.25.08-.23.14-.69.41c-.62.36-1.25.72-1.88,1.06l-.87.48q-.91.5-1.83,1l-.81.41c-.87.43-1.75.85-2.63,1.25q-1.69.78-3.39,1.47c-1.12.46-2.25.89-3.36,1.29-2.22-.8-4.49-1.73-6.75-2.76-.88-.4-1.75-.82-2.63-1.25l-.8-.41c-.62-.31-1.23-.63-1.84-1l-.87-.48c-.63-.34-1.25-.7-1.87-1.06l-.7-.41-.22-.14.24-.08C58.91,107.59,59.69,107.34,60.47,107.12Zm-13-74.34c1.26,1.82,2.44,3.7,3.53,5.62q1.09,1.93,2.07,3.93c.66,1.33,1.27,2.68,1.85,4.05a74.23,74.23,0,0,1,4.5,15.09,70,70,0,0,1,1,8c.16,1.87.23,3.83.23,5.81,0,1.06,0,2.12-.07,3.17,0,.34,0,.68-.06,1,0,.7-.08,1.41-.14,2.11,0,.41-.07.81-.11,1.21-.07.64-.14,1.28-.22,1.92-.05.42-.11.84-.17,1.26-.09.63-.19,1.25-.29,1.87-.07.41-.14.83-.22,1.25-.12.63-.25,1.26-.38,1.88-.09.4-.17.79-.26,1.19-.16.67-.33,1.35-.51,2-.08.33-.16.67-.26,1-.26.95-.54,1.89-.84,2.83,0,0,0,.11-.05.16h0c0-.83,0-1.66,0-2.49a76.59,76.59,0,0,0-2.88-20.85,75.63,75.63,0,0,0-5.86-14.7c-.48-.91-1-1.81-1.49-2.69-.16-.3-.35-.58-.52-.87-.35-.59-.7-1.18-1.07-1.76-.21-.34-.44-.67-.66-1-.34-.52-.68-1-1-1.55l-.75-1c-.35-.48-.69-1-1-1.44s-.54-.7-.82-1.05-.7-.92-1.07-1.37-.58-.69-.88-1-.73-.88-1.1-1.3-.62-.68-.93-1-.76-.83-1.15-1.24l-1-1c-.4-.4-.79-.8-1.19-1.19s-.68-.64-1-1-.81-.77-1.22-1.14l-1.07-.92c-.42-.36-.83-.72-1.26-1.07L28,35.62l-1.29-1c-.38-.29-.77-.57-1.16-.85l-1.32-1L23,32l-1.35-.89-1.24-.77c-.46-.28-.91-.56-1.38-.83l-1.27-.73c-.47-.26-.93-.52-1.41-.77l-1.31-.68c-.34-.17-.67-.35-1-.51,0-.3,0-.61,0-.91s0-.78.07-1.17.06-.91.1-1.37l.09-1.15c0-.46.09-.92.14-1.38l.12-1.13c.06-.47.12-.94.19-1.4s.09-.73.14-1.1.15-1,.23-1.43.11-.7.18-1c.08-.51.18-1,.28-1.51l.18-1c.12-.56.25-1.12.37-1.68.06-.26.11-.52.17-.78.19-.81.4-1.63.61-2.43A74.56,74.56,0,0,1,47.43,32.78ZM38,91.72q-2.51-2.7-4.77-5.59A89.24,89.24,0,0,1,21.86,67.37C21.2,65.91,20.59,64.45,20,63a91,91,0,0,1-2.95-9c-.2-.76-.4-1.53-.58-2.29a88.51,88.51,0,0,1-1.73-9.3A92.22,92.22,0,0,1,14,30.47c0-.21,0-.41,0-.62l.38.19,1.19.64c.46.25.93.5,1.38.76l1.17.68,1.35.82c.38.24.76.48,1.13.73l1.32.87,1.1.77,1.28.92,1.08.81,1.24,1,1,.84,1.2,1,1,.88L31,41.85l1,.92c.38.37.76.75,1.13,1.13s.62.63.92,1L35.15,46c.29.32.59.64.87,1s.71.82,1.06,1.24l.83,1c.35.43.68.86,1,1.3l.78,1c.34.45.66.91,1,1.37s.48.66.71,1,.66,1,1,1.47c.21.32.43.64.63,1,.35.55.68,1.11,1,1.67.17.28.35.55.51.83.48.85,1,1.7,1.41,2.57.59,1.12,1.15,2.26,1.69,3.42a72.72,72.72,0,0,1,4,10.74,74,74,0,0,1,2.78,20.11c0,2-.09,4-.25,6-.07.87-.15,1.73-.25,2.58,0,.19,0,.37-.07.56s0,.32-.07.48l-1.45-1-.84-.59c-.85-.61-1.68-1.23-2.51-1.87A88.43,88.43,0,0,1,38,91.72Zm76.6,65.07a68.67,68.67,0,0,1-8.06,14.11c-.71,1-1.45,1.91-2.21,2.83a68.49,68.49,0,0,1-6.13,6.5q-2,1.83-4.07,3.5a68,68,0,0,1-20.48,11.16,67.78,67.78,0,0,1-8.38-3.48q-2.43-1.2-4.75-2.59-1.53-.91-3-1.92a68.34,68.34,0,0,1-24.8-30.15c-.64-1.48-1.21-3-1.73-4.49l-.18-.59c.3.41.64.8,1,1.2.17.2.32.42.5.62.52.6,1.07,1.19,1.64,1.75a32.1,32.1,0,0,0,39.74,4.37,32.1,32.1,0,0,0,39.74-4.37,30.62,30.62,0,0,0,3.16-3.66l0,0c-.09.25-.16.5-.24.75C115.77,153.79,115.19,155.3,114.56,156.79Zm10.75-89.44a90.39,90.39,0,0,1-5.07,9.71q-1.89,3.12-4,6.09c-.71,1-1.44,2-2.2,2.93q-2.27,2.9-4.77,5.61a88.72,88.72,0,0,1-8.1,7.76c-1,.81-1.93,1.6-2.92,2.37-.83.65-1.68,1.27-2.52,1.88l-.84.59c-.48.34-1,.68-1.45,1,0-.16,0-.32-.07-.48l-.06-.56c-.1-.86-.19-1.72-.25-2.59-.17-2-.25-4-.25-6a73.84,73.84,0,0,1,2.78-20.15c.35-1.23.73-2.44,1.14-3.64a73.66,73.66,0,0,1,4.51-10.49c.45-.86.92-1.72,1.41-2.56.16-.28.34-.55.5-.83.33-.56.67-1.12,1-1.67.21-.33.43-.65.64-1,.32-.49.64-1,1-1.47l.72-1c.33-.46.65-.91,1-1.37l.78-1c.33-.44.67-.87,1-1.3l.83-1c.35-.41.69-.82,1-1.23l.88-1,1.09-1.17.93-1c.37-.38.74-.76,1.13-1.13s.64-.61,1-.92.77-.72,1.17-1.07l1-.89c.4-.35.8-.69,1.21-1s.69-.57,1-.85.82-.66,1.24-1l1.07-.81,1.28-.92,1.11-.77c.43-.3.87-.59,1.31-.87l1.14-.73,1.35-.82,1.16-.68,1.39-.76,1.18-.64.39-.19c0,.21,0,.41,0,.62A89.5,89.5,0,0,1,125.31,67.35Z" transform="translate(-10.74 -3.58)"/><path class="cls-1" d="M73.61,198.21a2,2,0,0,1-.59-.09A71.44,71.44,0,0,1,29.66,158c-.66-1.55-1.27-3.13-1.81-4.71a71.26,71.26,0,0,1-3.16-13.49,1.85,1.85,0,0,1,.45-1.48,1.55,1.55,0,0,1,.4-.35c.36-.22.7-.45,1-.67l.89-.59.81-.54c.31-.22.62-.44.92-.67l.87-.63.79-.57.89-.71.81-.64.79-.63.89-.77.77-.66.74-.65c.3-.27.59-.55.88-.83l.76-.71.68-.64c.32-.32.63-.65.95-1l.7-.72.56-.58c.39-.42.76-.84,1.14-1.27l.58-.65.41-.46c.68-.81,1.36-1.64,2-2.48.42-.52.82-1.06,1.22-1.59l.38-.53c.28-.38.53-.74.78-1.09l.45-.66c.23-.33.46-.66.68-1l.46-.71.62-1,.45-.74.58-1,.44-.77c.19-.32.37-.65.55-1l.42-.79c.18-.32.35-.65.52-1s.27-.53.4-.8l0-.06c-.81-.54-1.61-1.09-2.4-1.66l-.44-.31c-.88-.64-1.75-1.28-2.61-2A91.78,91.78,0,0,1,35.57,93.92a93.38,93.38,0,0,1-7.21-8.82,91.34,91.34,0,0,1-6.08-9.6c-1.21-2.22-2.35-4.5-3.38-6.81a92.71,92.71,0,0,1-8.16-38.22c0-1,0-1.91,0-2.87l0-.75c0-.71.05-1.43.09-2.14,0-.3,0-.59.07-.89l.07-1c0-.33,0-.67.08-1a93.09,93.09,0,0,1,2.4-14.13c.23-.93.47-1.85.73-2.76a1.94,1.94,0,0,1,1-1.19A2,2,0,0,1,16,3.58h.1a1.67,1.67,0,0,1,.68.15A77.63,77.63,0,0,1,62.57,60.87c.13.69.25,1.38.36,2.08.23,1.38.41,2.79.55,4.17.08.7.14,1.39.19,2.08.16,1.94.24,4,.24,6.06,0,1.17,0,2.34-.08,3.5a77.47,77.47,0,0,1-1.15,10.35c-.2,1.13-.43,2.26-.68,3.38a78.09,78.09,0,0,1-3,9.93c-.25.67-.51,1.33-.77,2,.48-.15.94-.29,1.41-.42l.55-.16c.74-.2,1.48-.38,2.23-.55l.23-.06c.81-.17,1.63-.32,2.45-.46l.58-.09c.83-.13,1.67-.25,2.51-.34a53.1,53.1,0,0,1,5.35-.28c1.2,0,2.52.06,4,.18l.42,0,.92.07c.84.09,1.67.21,2.5.34l.59.09c.82.14,1.63.29,2.44.46l.23.06c.75.17,1.49.35,2.23.55l.55.15,1.41.43c-.27-.68-.53-1.34-.77-2a77.49,77.49,0,0,1-4.87-27.15c0-2.09.08-4.14.24-6.1a78.82,78.82,0,0,1,1.09-8.29A77.68,77.68,0,0,1,130.34,3.74a2,2,0,0,1,.77-.15,2.18,2.18,0,0,1,.59.11l.18.07a1.79,1.79,0,0,1,.63.49,1.82,1.82,0,0,1,.37.7c.78,2.75,1.44,5.57,2,8.38.35,1.87.64,3.78.88,5.67s.4,3.83.52,5.72c0,.95.1,1.91.12,2.87s0,1.91,0,2.87a92.7,92.7,0,0,1-8.14,38.21,94.94,94.94,0,0,1-5.25,10,93.88,93.88,0,0,1-11.39,15.16,93.22,93.22,0,0,1-11.42,10.49c-.87.67-1.74,1.32-2.62,2l-.45.32c-.79.57-1.58,1.11-2.38,1.64l0,0c.13.27.27.53.4.79s.34.66.52,1,.29.55.42.78.36.65.55,1,.29.52.44.77.38.65.58,1l.45.75.62,1,.46.71.68,1,.45.66.78,1.09.39.54c.4.54.81,1.07,1.22,1.6.65.83,1.33,1.66,2,2.48l.21.24c.63.73,1.27,1.44,1.92,2.14l.4.42.57.59c.41.43.83.86,1.25,1.28l.57.54.71.67c.34.33.69.66,1,1s.43.38.65.57l.76.66c.33.29.66.58,1,.86l.6.48.79.63c.37.29.73.59,1.1.87l.72.52.88.64,1,.71.8.54.92.6c.31.21.63.43.95.63a2.21,2.21,0,0,1,.26.19l.14.12a1.48,1.48,0,0,1,.22.29l.07.09a1.59,1.59,0,0,1,.08.18,1.88,1.88,0,0,1,.17.76,2.64,2.64,0,0,1,0,.28,71.75,71.75,0,0,1-3.17,13.46c-.54,1.58-1.15,3.17-1.81,4.71A71.48,71.48,0,0,1,74.2,198.12,2,2,0,0,1,73.61,198.21ZM16.08,4.59a.81.81,0,0,0-.37.08.89.89,0,0,0-.47.55C15,6.13,14.74,7,14.51,8a92.57,92.57,0,0,0-2.37,14c0,.33-.05.65-.07,1l-.08,1c0,.29-.05.58-.07.87,0,.71-.06,1.41-.09,2.12l0,.74c0,.95,0,1.89,0,2.84a91.72,91.72,0,0,0,8.06,37.81c1,2.28,2.15,4.54,3.35,6.73a92.22,92.22,0,0,0,6,9.51,94.26,94.26,0,0,0,7.14,8.72,90.62,90.62,0,0,0,11.26,10.35c.85.66,1.71,1.29,2.58,1.92l.43.32c.84.59,1.68,1.17,2.53,1.73l.58.39-.42.86c-.13.27-.27.54-.41.81l-.52,1-.43.8c-.18.33-.37.66-.56,1l-.44.77c-.19.33-.39.66-.59,1l-.46.75c-.19.31-.39.62-.59.92l-.5.79-.69,1-.45.66-.78,1.08-.41.57c-.4.54-.81,1.08-1.23,1.61-.66.85-1.35,1.7-2.05,2.51l-.43.48-.57.64c-.38.44-.76.87-1.15,1.29l-.58.6-.7.72c-.32.33-.64.67-1,1l-.7.67-.74.7-.9.84c-.25.23-.51.45-.77.67l-.76.66c-.3.26-.6.53-.91.78s-.54.44-.82.65l-.79.64-.91.72-.81.59-.86.62-.95.68-.83.56-.88.58-1,.68-.2.17a.85.85,0,0,0-.2.68A70.7,70.7,0,0,0,28.8,153c.53,1.55,1.13,3.11,1.78,4.64a70.45,70.45,0,0,0,42.76,39.54.83.83,0,0,0,.54,0,70.49,70.49,0,0,0,42.74-39.5c.65-1.52,1.25-3.09,1.78-4.64a71.41,71.41,0,0,0,3.13-13.28v-.13a.77.77,0,0,0-.08-.35l.42-.31-.46.2-.13-.17-.06,0a.48.48,0,0,0-.12-.1l-1-.67-.91-.59-.82-.55c-.34-.24-.68-.48-1-.73l-.88-.63-.73-.54-1.13-.89-.78-.62-.62-.5c-.35-.28-.69-.58-1-.87l-.75-.66-.67-.58c-.36-.32-.71-.66-1.06-1l-.7-.65-.59-.56c-.43-.43-.85-.87-1.27-1.31l-.56-.58c-.15-.14-.29-.28-.43-.43-.66-.71-1.3-1.44-1.94-2.17l-.21-.25c-.71-.83-1.4-1.67-2.06-2.51q-.63-.81-1.23-1.62l-.4-.55-.79-1.1-.46-.67c-.23-.34-.46-.67-.68-1l-.47-.72-.63-1-.39-.65-.07-.11-.59-1-.45-.78-.55-1-.39-.72c-.21-.41-.39-.74-.56-1.08s-.27-.53-.41-.8l-.4-.84.57-.39c.84-.55,1.68-1.12,2.51-1.72l.44-.32c.87-.63,1.74-1.27,2.6-1.93a93.29,93.29,0,0,0,22.56-25.38,92.86,92.86,0,0,0,5.19-9.94,91.58,91.58,0,0,0,8.06-37.8c0-.95,0-1.89,0-2.84h0c0-.95-.07-1.9-.13-2.84-.11-1.87-.28-3.77-.51-5.66s-.52-3.76-.86-5.61c-.52-2.78-1.17-5.57-2-8.29a.76.76,0,0,0-.17-.32.8.8,0,0,0-.29-.23,1.24,1.24,0,0,0-.36-.08.78.78,0,0,0-.35.07A76.72,76.72,0,0,0,84.49,69.24c-.16,1.93-.24,4-.24,6a76.2,76.2,0,0,0,4.82,26.8c.35,1,.74,1.94,1.15,2.93l.44,1.06-1.06-.37c-.85-.28-1.62-.52-2.39-.74l-.54-.15c-.73-.19-1.45-.38-2.19-.54l-.22,0c-.8-.18-1.6-.33-2.4-.46l-.57-.09c-.82-.13-1.63-.24-2.46-.33l-.88-.07-.43,0c-1.47-.12-2.76-.17-3.94-.17a51.28,51.28,0,0,0-5.25.27c-.82.09-1.64.2-2.45.33l-.58.09c-.8.13-1.6.28-2.39.45l-.23.06c-.74.16-1.46.35-2.18.54l-.55.15c-.77.22-1.53.46-2.29.71L56.6,106l.33-1,.43.08v0l-.38-.16c.39-.92.76-1.87,1.13-2.84A76.53,76.53,0,0,0,61,92.27c.25-1.1.47-2.23.67-3.34a75.58,75.58,0,0,0,1.14-10.21c.05-1.15.07-2.31.07-3.46,0-2.05-.08-4.06-.23-6-.05-.69-.11-1.37-.18-2.06-.15-1.36-.33-2.75-.55-4.11-.11-.69-.23-1.37-.35-2A76.67,76.67,0,0,0,16.42,4.66a.88.88,0,0,0-.33-.07ZM73.61,195.42l-.16,0A70,70,0,0,1,65,191.86c-1.62-.8-3.23-1.68-4.77-2.61-1-.62-2.07-1.27-3.06-1.94a68.59,68.59,0,0,1-25-30.37c-.63-1.49-1.22-3-1.73-4.52,0-.11-.07-.23-.11-.34l-1-3.19,1.84,2.48c.25.33.51.65.78,1l.38.48c.09.11.18.23.28.34.52.6,1.06,1.18,1.61,1.73a31.59,31.59,0,0,0,39.12,4.29l.27-.17.27.17a31.6,31.6,0,0,0,42.23-7.89l1.83-2.49-1,3.21c0,.15-.09.3-.14.44-.51,1.51-1.1,3-1.73,4.53a68.81,68.81,0,0,1-8.12,14.22c-.7,1-1.45,1.91-2.22,2.85a69.57,69.57,0,0,1-6.18,6.55c-1.32,1.22-2.69,2.41-4.1,3.52a68.51,68.51,0,0,1-9,6,70.18,70.18,0,0,1-11.65,5.2ZM32.16,154.2c.3.79.62,1.57,1,2.35a67.54,67.54,0,0,0,24.62,29.93c1,.66,2,1.3,3,1.91,1.53.91,3.11,1.78,4.71,2.57a66.86,66.86,0,0,0,8.16,3.4,67,67,0,0,0,11.31-5.07,68.22,68.22,0,0,0,8.86-5.95c1.38-1.1,2.74-2.27,4-3.47a67.62,67.62,0,0,0,6.09-6.46c.76-.92,1.5-1.87,2.2-2.81a67.46,67.46,0,0,0,8-14h0c.36-.83.69-1.67,1-2.5-.46.52-.94,1-1.43,1.51a32.6,32.6,0,0,1-40.09,4.6,32.62,32.62,0,0,1-40.1-4.6C33,155.16,32.59,154.69,32.16,154.2Zm58.56,8.12c-.67,0-1.36,0-2.11-.08l-.44,0-.24,0c-.47,0-.94-.09-1.4-.15l-.58-.1-.22,0q-.63-.1-1.26-.24l-.83-.19-1.2-.32-.82-.25c-.4-.13-.79-.26-1.19-.41l-.78-.29c-.41-.16-.8-.34-1.2-.52l-.22-.1-.5-.23c-.44-.21-.87-.44-1.3-.67l-.21-.11-.34-.19-.1-.06-.61-.38,1.26-1c.19-.15.37-.31.56-.48l.41-.35.56-.51.38-.36c.19-.18.37-.37.56-.56l.34-.34q.32-.33.63-.69l.23-.24.82-1,.19-.25.59-.75.27-.38c.16-.22.32-.43.47-.65l.29-.43.41-.63.28-.46c.13-.21.25-.42.37-.63s.19-.31.27-.47.24-.43.35-.65l.25-.48L85,146l.22-.48c.11-.24.21-.48.31-.71l.19-.46c.11-.25.2-.51.3-.76l.16-.43c.14-.4.28-.8.4-1.2a.85.85,0,0,0-.08-.71.49.49,0,0,0-.11-.14.77.77,0,0,0-.46-.26c-1.06-.22-2.17-.4-3.39-.58a62.29,62.29,0,0,0-21.28.58.86.86,0,0,0-.58.4.93.93,0,0,0-.08.71c.13.4.26.8.41,1.2l.15.4c.1.26.19.53.3.79l.2.46.3.7.23.49.32.66c.09.16.17.32.25.48l.35.65.27.47.37.63.29.46c.13.21.27.42.41.63l.29.43c.15.22.3.43.46.64l.28.39.59.75.19.25.82,1,.22.25.64.69.33.33.57.56.38.36.56.51.34.3.63.53,1.27,1-.72.44-.34.18-.21.11c-.43.24-.87.47-1.31.69l-.51.23-.21.09c-.39.18-.79.36-1.19.52l-.64.24-.15,0c-.39.15-.78.28-1.18.41l-.82.25-1.21.32-.82.19c-.42.09-.84.17-1.27.24l-.2,0-.59.1q-.7.09-1.41.15l-.23,0-.45,0c-.75,0-1.44.08-2.11.08a30,30,0,0,1-5.84-.57c-.94-.19-1.88-.42-2.81-.7a28.32,28.32,0,0,1-2.72-1,30,30,0,0,1-12.6-9.84q-.44-.59-.84-1.2l-.17-.25-.09-.15c-.18-.27-.36-.55-.53-.83-.06-.11-.13-.22-.19-.34l-.09-.15-.43-.77-.22-.41-.06-.13c-.13-.25-.26-.5-.38-.76s-.17-.37-.26-.56l-.33-.76c-.08-.2-.16-.39-.23-.59s-.2-.51-.29-.76l-.21-.6c-.09-.27-.17-.53-.25-.79l-.18-.6-.16-.64.3-.2.9-.6.9-.61.8-.55.93-.68.85-.63c.26-.19.53-.39.78-.59s.64-.5,1-.76l.76-.61c.26-.21.52-.41.77-.63s.59-.51.88-.77l.8-.69c.24-.21.48-.42.71-.64s.6-.56.89-.84l.76-.73c.23-.21.45-.41.66-.63s.64-.65,1-1l.69-.71.57-.59,1.07-1.2.61-.69c.15-.17.3-.33.44-.51.63-.72,1.23-1.47,1.83-2.23l.2-.25c.43-.55.83-1.07,1.23-1.61l.4-.54c.26-.37.53-.73.78-1.1l.53-.77.62-.9.54-.84.55-.86.46-.75c.2-.33.4-.65.59-1l.45-.78c.19-.32.37-.65.56-1l.43-.79c.18-.33.35-.66.52-1l.42-.81.51-1,.47.29.5.3.37.22,1.09.66,1.67,1,.31.17.75.41c.62.34,1.24.66,1.87,1l.37.19.53.27c.93.47,1.86.92,2.8,1.34,2.48,1.13,5,2.14,7.39,3a.83.83,0,0,0,.58,0c1.21-.43,2.44-.9,3.68-1.4s2.48-1,3.71-1.6c.94-.42,1.87-.87,2.8-1.34l.56-.28.35-.18c.62-.32,1.24-.64,1.86-1,.24-.12.47-.25.7-.38l.36-.2c.56-.31,1.12-.63,1.67-1,.37-.21.73-.43,1.09-.65l.35-.2.53-.32.47-.29.92,1.82.52,1c.14.27.29.53.44.8l.54,1,.46.78c.18.3.35.6.54.89l.51.84c.19.3.38.6.58.9l.52.8c.17.27.35.53.53.79l.61.89.76,1.06.42.58c.4.54.81,1.08,1.23,1.61.67.85,1.35,1.69,2,2.49l.46.51.49.55c.39.45.78.9,1.18,1.33l.57.59.72.75c.31.32.61.65.93,1l.64.62.75.71.92.87.73.65.71.62,1,.84.72.58.79.63c.32.27.65.53,1,.79l.8.59.81.6c.31.24.63.48,1,.71l.83.56.85.58c.3.21.59.41.89.6l.31.2-.17.64-.18.6c-.08.27-.16.53-.25.79s-.13.4-.21.6-.18.51-.28.77l-.24.58-.33.76-.26.57c-.12.25-.25.5-.38.75l-.28.55c-.14.25-.28.51-.43.76l-.29.5-.52.83-.26.4c-.27.41-.56.81-.85,1.2a29.75,29.75,0,0,1-2.94,3.4q-.52.53-1.08,1a29.31,29.31,0,0,1-4.69,3.47c-.41.25-.83.48-1.26.71-.84.45-1.72.86-2.61,1.23A29.6,29.6,0,0,1,90.72,162.32ZM77,157.8c.4.22.81.44,1.22.64a4,4,0,0,0,.47.21l.23.11c.38.17.76.34,1.15.49l.76.29,1.14.4.79.23c.39.12.78.22,1.17.31l.8.19c.4.09.81.16,1.22.23l.23,0,.54.08c.45.07.9.11,1.35.15l.26,0,.41,0c.72,0,1.38.07,2,.07a28.61,28.61,0,0,0,11-2.16,25.22,25.22,0,0,0,2.52-1.19l1.22-.68a29,29,0,0,0,4.53-3.35c.35-.32.7-.65,1-1a27.69,27.69,0,0,0,2.84-3.29c.29-.38.56-.77.83-1.16l.25-.39c.17-.26.34-.53.5-.8l.28-.48c.14-.25.29-.49.42-.74s.15-.29.22-.43l0-.09c.12-.25.25-.49.36-.73l.25-.55c.11-.24.22-.49.32-.73s.16-.38.23-.57.19-.49.28-.74.13-.39.2-.58l.24-.76.15-.5-.61-.42-.84-.57-.85-.58-1-.73-.79-.58-.83-.62-1-.8-.78-.63c-.24-.2-.49-.39-.73-.6s-.66-.56-1-.85l-.69-.61-.76-.67c-.32-.29-.63-.59-.94-.89l-.73-.7-.67-.64c-.32-.32-.63-.65-1-1l-.71-.74-.59-.61-1.2-1.34-.47-.54c-.16-.18-.33-.36-.48-.54-.69-.81-1.38-1.66-2.06-2.52-.42-.54-.84-1.08-1.24-1.63l-.41-.56-.8-1.11-.61-.89-.54-.8-.48-.74-.63-1-.48-.78c-.23-.37-.41-.67-.59-1l-.46-.79L93,113h0l-.45-.82-.52-1-.44-.87-.08,0-.34.2-1.1.66-1.69,1-.36.19c-.23.14-.47.27-.71.4-.62.34-1.25.66-1.89,1l-.34.18-.57.29c-.94.47-1.88.92-2.83,1.36-1.25.56-2.51,1.11-3.75,1.61s-2.5,1-3.72,1.41a1.79,1.79,0,0,1-1.25,0c-2.46-.86-5-1.88-7.47-3-.95-.44-1.9-.89-2.84-1.36L62.1,114l-.36-.19c-.63-.32-1.26-.64-1.88-1l-.77-.43-.31-.17q-.84-.47-1.68-1L56,110.61l-.4-.25-.06,0,0,0c-.13.28-.27.55-.42.82s-.35.67-.53,1-.29.54-.44.81-.37.66-.56,1l-.45.79-.6,1-.47.76c-.18.29-.37.58-.56.87l-.55.85c-.2.31-.41.62-.62.92l-.53.78-.8,1.11-.4.55c-.4.54-.81,1.07-1.22,1.6l-.23.28c-.61.77-1.22,1.53-1.85,2.27-.15.18-.31.35-.47.52l-.6.68-1.08,1.22-.59.61-.68.71-1,1-.68.65-.75.72c-.3.29-.6.58-.91.86l-.74.66-.78.68-.9.79-.8.64-.75.61-1,.78-.81.6-.84.62c-.31.24-.63.47-.95.7s-.55.38-.83.57l-.88.6-.62.42.15.5.24.76.21.58c.08.24.18.49.27.74l.23.57c.1.24.21.48.32.72s.16.37.25.55l.36.73.07.14c.07.12.13.26.2.38s.28.5.42.75l.27.47.51.81.25.38c.26.4.53.79.82,1.17a28.64,28.64,0,0,0,2.84,3.29c.68.67,1.39,1.31,2.13,1.91a28.46,28.46,0,0,0,7.2,4.3,27.43,27.43,0,0,0,2.63.94c.89.27,1.81.5,2.72.68a29.46,29.46,0,0,0,5.64.54c.65,0,1.32,0,2-.07l.41,0,.25,0c.45,0,.91-.08,1.36-.15l.56-.09.21,0c.41-.07.81-.14,1.22-.23l.79-.19c.4-.09.78-.19,1.17-.31s.53-.15.79-.24.77-.25,1.14-.39l.15,0,.62-.24c.39-.15.77-.32,1.15-.49l.21-.1.49-.22c.41-.2.82-.42,1.22-.64l-.12-.09-.58-.49-.42-.37-.58-.52-.39-.37-.58-.58-.34-.35c-.23-.23-.45-.47-.66-.71l-.23-.25c-.29-.33-.57-.66-.85-1l-.2-.25c-.2-.26-.41-.52-.6-.78l-.29-.39L63.9,151l-.25-.38-.47-.71-.29-.48-.39-.65-.28-.49-.36-.66-.25-.5c-.12-.22-.23-.45-.34-.68l-.23-.5c-.11-.24-.21-.48-.32-.73l-.2-.47c-.11-.27-.21-.55-.32-.82l-.15-.41c-.15-.41-.29-.82-.42-1.24a1.88,1.88,0,0,1,1.42-2.4,63.52,63.52,0,0,1,21.62-.58c1.24.17,2.37.37,3.44.58a1.84,1.84,0,0,1,1,.57,2.34,2.34,0,0,1,.24.31,1.88,1.88,0,0,1,.17,1.52c-.13.42-.27.83-.42,1.24l-.15.4c-.11.3-.21.57-.32.83l-.2.47c-.1.25-.21.49-.32.73l-.18.41-.38.78-.26.49c-.12.23-.24.44-.36.66l-.28.5-.38.64-.29.48-.43.65-.3.44-.47.67-.29.39-.61.78-.2.25c-.27.34-.55.67-.84,1l-.23.25L80,155l-.35.35c-.19.19-.38.39-.58.58l-.39.36-.57.53-.42.37-.59.49Zm-3.37-.88-.29-.21a29.87,29.87,0,0,1-10.53-13.78l-.21-.57.6-.1a60.45,60.45,0,0,1,20.87,0l.6.1-.22.57a29.85,29.85,0,0,1-10.52,13.78Zm-9.66-13.77a28.91,28.91,0,0,0,9.66,12.53,28.77,28.77,0,0,0,9.66-12.53A59.64,59.64,0,0,0,63.92,143.15ZM73.58,116l-.17-.06c-2.23-.81-4.52-1.75-6.79-2.78-.88-.4-1.76-.83-2.64-1.26l-.81-.41-1.84-1c-.3-.16-.59-.31-.88-.48-.63-.35-1.26-.7-1.89-1.07l-1.84-1.11,1.26-.42c.78-.27,1.56-.53,2.35-.75h0c.79-.23,1.58-.43,2.38-.61l.45-.11c.78-.17,1.57-.32,2.36-.45l.46-.08q1.24-.19,2.49-.33a49.09,49.09,0,0,1,10.14,0q1.26.14,2.49.33l.46.08c.8.13,1.58.28,2.37.45l.44.11c.8.18,1.6.38,2.38.6s1.62.5,2.4.77l1.15.39-1.74,1.14c-.62.37-1.25.72-1.88,1.07l-.88.48c-.61.33-1.23.65-1.85,1l-.81.41c-.87.43-1.75.86-2.64,1.26-1.14.52-2.28,1-3.41,1.47s-2.26.9-3.38,1.31ZM59.1,108.07l1.83,1.05.87.47c.61.32,1.21.64,1.83,1l.8.41c.86.43,1.73.85,2.61,1.25,2.19,1,4.39,1.89,6.54,2.68,1-.38,2.11-.79,3.17-1.23s2.25-.94,3.37-1.45c.88-.4,1.75-.82,2.62-1.25l.8-.41,1.82-1,.87-.48c.62-.34,1.23-.69,1.84-1-.5-.17-1-.32-1.52-.47-.8-.23-1.58-.42-2.36-.6l-.44-.1q-1.16-.25-2.31-.45l-.46-.08c-.8-.12-1.61-.24-2.43-.32a48.56,48.56,0,0,0-9.94,0c-.81.08-1.62.2-2.43.33l-.45.07c-.78.13-1.55.28-2.32.45L63,107c-.78.18-1.56.37-2.33.59h0C60.1,107.75,59.6,107.9,59.1,108.07ZM93,106.16l-.24-1.8c-.1-.92-.19-1.79-.25-2.66-.17-2-.25-4-.25-6a75.19,75.19,0,0,1,1.1-12.81,73,73,0,0,1,1.7-7.48c.35-1.22.73-2.46,1.14-3.66a74.15,74.15,0,0,1,4.54-10.56c.46-.87.93-1.73,1.42-2.58l.3-.49.33-.56c.3-.49.59-1,.9-1.47.13-.21.27-.42.41-.63l.41-.63.8-1.2c.16-.23.32-.46.49-.68l.36-.51c.29-.4.57-.8.87-1.2l.54-.7.35-.45c.3-.39.6-.78.92-1.16l.63-.77.21-.24c.36-.43.7-.84,1-1.24l.73-.8.16-.18c.37-.4.73-.8,1.1-1.19s.55-.57.83-.85l.1-.11c.38-.38.75-.76,1.14-1.13s.64-.62,1-.92L117,40.4l1-.89c.4-.35.81-.69,1.22-1l1-.86,1.26-1,1.07-.81,1.29-.93,1.12-.78,1.32-.87,1.14-.73c.45-.29.91-.56,1.36-.83l.1-.06L130,31c.47-.27.93-.52,1.4-.77l.14-.08,1-.56,1.11-.56,0,1.43a89.94,89.94,0,0,1-7.9,37.08h0a90.63,90.63,0,0,1-5.1,9.77c-1.26,2.08-2.62,4.14-4,6.13-.71,1-1.45,2-2.21,2.94-1.51,1.93-3.13,3.82-4.8,5.64a92.67,92.67,0,0,1-8.15,7.81c-1,.81-1.94,1.61-2.93,2.37s-1.69,1.29-2.54,1.9l-.51.36-.33.23-1.46,1Zm39.64-75.49L132,31l-.14.08-1.38.76-1,.62-.1.06q-.68.39-1.35.81l-1.12.72-1.31.86-1.1.77-1.27.92-1.06.8-1.24,1-1,.84-1.2,1-1,.88c-.39.35-.77.71-1.15,1.07s-.65.6-1,.91-.75.74-1.12,1.12l-.1.1-.83.84-1.07,1.17-.17.19-.71.78c-.35.4-.68.8-1,1.2l-.23.27-.63.75-.9,1.15-.35.44-.53.7c-.29.38-.57.78-.85,1.17l-.37.51-.47.67c-.27.39-.53.79-.79,1.18L105,56l-.39.6c-.31.48-.6,1-.89,1.46l-.33.56-.29.47c-.48.84-1,1.69-1.4,2.55a73.21,73.21,0,0,0-4.48,10.41c-.4,1.19-.78,2.41-1.12,3.61a71.21,71.21,0,0,0-1.68,7.39,74,74,0,0,0-1.09,12.63c0,2,.09,4,.25,5.93.06.86.15,1.72.25,2.57l0,.23.77-.54.34-.24.5-.34c.83-.61,1.67-1.24,2.5-1.88,1-.76,2-1.55,2.9-2.35a90.59,90.59,0,0,0,8.06-7.72c1.66-1.8,3.25-3.67,4.75-5.58.75-1,1.49-1.94,2.19-2.91,1.41-2,2.75-4,4-6.06a89.36,89.36,0,0,0,5-9.65h0A88.71,88.71,0,0,0,132.66,30.67ZM54.14,106.16l-.68-.46-1.46-1-.35-.24-.5-.35c-.84-.62-1.69-1.24-2.51-1.89a88,88,0,0,1-11-10.15c-1.67-1.8-3.28-3.69-4.79-5.62A90.14,90.14,0,0,1,21.4,67.57c-.65-1.45-1.27-2.94-1.85-4.42a91.06,91.06,0,0,1-3-9c-.21-.77-.4-1.53-.59-2.3a92.34,92.34,0,0,1-1.74-9.36,93.38,93.38,0,0,1-.77-12V29l1.11.56,1,.53.18.1c.47.26.94.51,1.4.78s.78.45,1.17.68.91.54,1.36.83l1.15.73,1.32.87,1.11.78,1.29.93,1.08.81c.42.33.84.65,1.25,1l1.05.85,1.21,1,1,.89,1.18,1.09c.33.3.65.61,1,.92l1.14,1.14.09.09.84.86c.37.39.73.79,1.1,1.19l.18.2.7.78,1,1.18.25.3.64.77c.32.39.63.79,1,1.2l.3.39c.19.24.38.48.56.73L41,52.43l.37.52.48.67c.28.42.56.84.83,1.26l.38.57c.14.21.28.42.41.63.33.52.64,1,.95,1.57l.26.43c.11.17.21.35.31.52.49.85,1,1.71,1.43,2.58.59,1.12,1.16,2.28,1.69,3.45a72.68,72.68,0,0,1,4,10.82,74.08,74.08,0,0,1,2.8,20.24c0,2-.09,4-.25,6-.07.86-.15,1.73-.25,2.59ZM14.49,30.67a91.88,91.88,0,0,0,.77,11.64A89.69,89.69,0,0,0,17,51.56c.18.76.37,1.52.58,2.28a89.91,89.91,0,0,0,2.93,8.95c.57,1.46,1.18,2.94,1.82,4.37A89.44,89.44,0,0,0,33.59,85.82c1.49,1.91,3.09,3.78,4.74,5.56h0a87.43,87.43,0,0,0,10.92,10q1.23,1,2.49,1.86l.48.34.36.25.77.54,0-.21c.1-.86.18-1.71.25-2.56.16-2,.24-4,.24-6a73.31,73.31,0,0,0-2.75-20,72.64,72.64,0,0,0-3.94-10.67c-.53-1.15-1.09-2.29-1.67-3.4q-.67-1.29-1.41-2.55c-.09-.16-.19-.33-.3-.49l-.26-.45c-.31-.52-.62-1-.94-1.54-.13-.21-.26-.41-.4-.61l-.38-.58c-.27-.42-.54-.83-.82-1.24-.15-.22-.31-.44-.47-.65L40.16,53c-.28-.4-.56-.79-.85-1.18l-.55-.71-.31-.4c-.31-.39-.61-.79-.93-1.18l-.63-.76-.2-.23c-.38-.46-.71-.85-1-1.23l-.7-.77-.18-.19c-.35-.4-.71-.79-1.08-1.18l-.82-.84-.1-.1c-.37-.38-.74-.75-1.12-1.12l-1-.91-1.16-1.07-1-.88-1.2-1-1-.84c-.4-.33-.82-.65-1.23-1L24,36.64c-.42-.31-.84-.62-1.27-.92L21.63,35c-.43-.29-.86-.58-1.3-.86s-.75-.49-1.13-.72-.89-.55-1.34-.81l-1.15-.68-1.38-.76-.19-.1Zm76.2,71L89.6,98.3c-.32-1-.62-2-.9-3,0-.2-.11-.4-.16-.6l-.1-.39c-.18-.68-.35-1.37-.51-2.06-.08-.32-.14-.65-.21-1l0-.21c-.13-.64-.27-1.27-.39-1.91-.07-.42-.15-.83-.22-1.25-.1-.63-.2-1.25-.29-1.88-.06-.42-.12-.84-.17-1.26-.08-.65-.15-1.3-.22-1.94l0-.37c0-.28,0-.56-.08-.85-.06-.7-.1-1.41-.14-2.12l0-.39c0-.22,0-.43,0-.65,0-1.06-.07-2.11-.07-3.18,0-2,.08-4,.23-5.88.11-1.35.25-2.71.43-4s.38-2.65.63-3.95c.42-2.24.94-4.48,1.56-6.66.41-1.46.87-2.91,1.36-4.32s1-2.83,1.62-4.2A74.4,74.4,0,0,1,103.56,27c.64-.76,1.29-1.5,2-2.23.85-.94,1.62-1.75,2.34-2.46,1-1.06,2.13-2.09,3.24-3.07,1.66-1.48,3.42-2.91,5.21-4.24.6-.44,1.21-.88,1.83-1.31.91-.64,1.91-1.29,3-2,2.21-1.38,4.47-2.64,6.72-3.75.68-.34,1.37-.67,2.07-1l.54-.25.15.58c.22.81.42,1.63.61,2.45l.24,1.05c.1.48.21.95.31,1.43l.24,1.23c.08.42.16.84.23,1.26l.12.69.11.7.18,1.11.17,1.26c0,.42.11.83.16,1.25l.09.88,0,.38c.05.42.09.84.13,1.26s.06.65.08,1v.17c0,.46.07.92.1,1.38s.05.77.06,1.16l.06,1.24-.3.14-.59.3-.58.3-1.13.58-1.3.72-.29.16-1.08.61-1.18.72-.44.27-1,.6-1.11.74-.49.33-.93.63-1,.74-.53.38-.91.67c-.35.26-.69.53-1,.8l-.55.43-.82.66-1,.83-.57.49-.76.66c-.34.3-.66.61-1,.91l-.49.45-.75.71c-.31.29-.6.59-.9.89l-.59.59-.66.68c-.28.29-.56.59-.83.89l-.58.63-.66.72-.8.94-.58.68-.59.7-.8,1-.53.68c-.19.23-.37.47-.55.7s-.52.72-.78,1.08l-.49.69c-.18.23-.35.47-.51.7l-.77,1.15-.51.79c-.14.2-.27.4-.4.61-.31.48-.6,1-.9,1.47l-.37.62c-.11.17-.21.34-.31.52-.51.88-1,1.77-1.48,2.67a75.72,75.72,0,0,0-8,24.81,76.68,76.68,0,0,0-.72,10.51c0,.82,0,1.63,0,2.44ZM129.84,8.07l-1.5.72a73.76,73.76,0,0,0-6.62,3.7c-1.13.7-2.11,1.35-3,2l-1.8,1.3c-1.77,1.31-3.5,2.72-5.14,4.18-1.09,1-2.17,2-3.2,3-.71.71-1.46,1.51-2.31,2.43-.66.73-1.3,1.46-1.93,2.21a73.69,73.69,0,0,0-11.59,19c-.56,1.35-1.1,2.74-1.59,4.14s-.94,2.82-1.34,4.26c-.61,2.15-1.13,4.37-1.54,6.58-.25,1.28-.46,2.59-.63,3.89s-.31,2.67-.42,4h0c-.15,1.86-.22,3.81-.22,5.8,0,1,0,2.1.07,3.14,0,.21,0,.42,0,.62l0,.4c0,.7.09,1.4.14,2.1,0,.28.06.55.08.83l0,.37c.06.63.13,1.27.21,1.91.06.42.11.83.17,1.24.09.62.19,1.24.29,1.86.07.41.15.83.22,1.23.12.63.25,1.26.38,1.89l0,.21c.07.32.13.64.21,1,.15.68.33,1.36.51,2l.1.39s0,.07,0,.11A77.15,77.15,0,0,1,90.27,85a75.74,75.74,0,0,1,2.17-10.39A77.34,77.34,0,0,1,98.33,59.9c.48-.91,1-1.81,1.5-2.71.1-.18.21-.36.32-.54l.37-.6c.3-.51.6-1,.91-1.5.13-.21.27-.42.41-.63l.51-.78.78-1.17.52-.72.49-.68c.26-.37.53-.74.8-1.1l.56-.72.53-.68.81-1,.61-.72.58-.68c.27-.32.53-.64.81-1l.67-.74.58-.63.84-.9.68-.7.59-.58c.3-.31.6-.61.91-.91s.51-.49.77-.73l.48-.44,1-.93c.25-.23.52-.45.78-.67l.56-.49,1-.85.84-.67.54-.42,1-.82.93-.68.52-.38,1-.76.94-.63.49-.33c.38-.26.75-.51,1.13-.75s.66-.42,1-.62l.43-.27c.4-.24.8-.49,1.21-.72s.72-.42,1.09-.62l.29-.17c.44-.24.87-.49,1.32-.72s.76-.4,1.15-.59l.57-.3.32-.16,0-.58-.06-1.15c0-.46-.06-.91-.1-1.36v-.17c0-.33-.05-.65-.08-1L132.17,21l0-.39c0-.29-.06-.58-.09-.86s-.1-.82-.16-1.23l-.17-1.26c0-.36-.11-.73-.17-1.09l-.12-.71c0-.22-.07-.44-.11-.67-.07-.41-.15-.82-.23-1.24l-.24-1.22c-.09-.47-.2-.94-.3-1.41l-.23-1C130.15,9.3,130,8.69,129.84,8.07ZM56.53,100.38l0-2.22c0-.82,0-1.64,0-2.47A76.42,76.42,0,0,0,53.76,75a75.78,75.78,0,0,0-5.83-14.6q-.7-1.35-1.47-2.67l-.3-.51-.34-.55c-.31-.52-.62-1-.94-1.55l-.4-.62-.47-.7q-.39-.62-.81-1.23c-.16-.22-.32-.45-.49-.67l-.51-.71c-.26-.36-.52-.73-.79-1.09l-.53-.69-.52-.66-.83-1c-.18-.23-.38-.45-.57-.68l-.55-.64c-.28-.34-.56-.67-.85-1s-.39-.43-.59-.65l-.58-.62c-.29-.33-.59-.65-.89-1l-.67-.68-.54-.54c-.31-.32-.62-.63-.94-.94l-.72-.67-.56-.52c-.32-.3-.63-.59-1-.88l-.74-.65-.57-.48-1-.85L28,36.27l-.55-.43c-.35-.28-.7-.56-1.06-.83l-.89-.66L25.09,34c-.38-.28-.75-.56-1.14-.82L23,32.58l-.47-.32c-.37-.25-.74-.5-1.12-.74l-1-.6-.36-.23-1.26-.76-1-.59-.36-.2-1.26-.7L15,27.86l-.58-.3-.59-.3-.29-.14.06-1.42c0-.33,0-.66.06-1s.06-.92.1-1.38V23.1c0-.31.05-.62.08-.93s.08-.83.13-1.24l0-.43.09-.86c0-.42.11-.83.17-1.25l.06-.49c0-.26.07-.52.11-.77.06-.43.13-.86.2-1.29l.08-.5.12-.71c.08-.44.16-.88.25-1.32l.1-.55.12-.61.36-1.66.18-.81c.2-.82.4-1.64.61-2.45l.16-.58.54.25A75.11,75.11,0,0,1,47.84,32.5c1.27,1.82,2.46,3.72,3.56,5.66.73,1.29,1.43,2.62,2.09,4s1.27,2.7,1.85,4.08a75.49,75.49,0,0,1,4.54,15.19,70.88,70.88,0,0,1,1,8c.16,1.88.23,3.85.23,5.85,0,1.07,0,2.13-.07,3.19,0,.21,0,.43,0,.65l0,.38c0,.72-.08,1.43-.14,2.13q0,.47-.09.93l0,.29c-.07.65-.14,1.29-.22,1.94-.05.42-.11.84-.17,1.27-.09.62-.19,1.25-.3,1.87-.07.42-.14.84-.22,1.26-.12.64-.25,1.27-.38,1.9l-.06.27c-.07.31-.13.62-.2.92q-.24,1-.51,2l-.1.37c0,.21-.1.43-.16.64-.27,1-.55,1.91-.85,2.86l0,.15ZM14.59,26.51l.32.16.56.29c.39.2.78.39,1.16.6l1.28.7.36.2,1.06.6,1.28.78.36.22,1,.62,1.14.75.46.31c.33.21.65.43,1,.65l1.17.84.43.31.9.67c.36.27.72.56,1.08.84l.54.43c.27.21.54.42.8.64l1,.87.56.48.76.66c.33.29.65.59,1,.89l.57.52.72.69c.33.31.65.63,1,1l.54.54.68.69.92,1,.57.62.6.67c.3.33.58.67.87,1l.54.64c.2.23.4.46.59.7s.56.7.84,1.06l.51.66c.19.23.38.47.56.71s.54.74.8,1.11l.51.7L44,52c.29.41.56.84.84,1.26l.45.69.42.63c.33.52.64,1.05,1,1.58l.33.54c.11.17.22.35.32.53.52.89,1,1.79,1.49,2.71a75.94,75.94,0,0,1,5.9,14.79,76.41,76.41,0,0,1,2.89,19.87.83.83,0,0,0,0-.15l.1-.38c.17-.67.35-1.33.5-2,.07-.29.13-.6.2-.9l.06-.27c.13-.63.26-1.25.37-1.87.08-.42.15-.83.22-1.25.11-.61.2-1.23.29-1.85.06-.41.12-.83.17-1.25.08-.63.15-1.27.22-1.91l0-.29c0-.3.06-.61.08-.91.06-.7.1-1.4.14-2.1l0-.39,0-.63c0-1,.07-2.1.07-3.15,0-2-.08-3.91-.23-5.77a69.43,69.43,0,0,0-1-7.93,74.25,74.25,0,0,0-4.48-15c-.56-1.36-1.18-2.72-1.83-4s-1.33-2.62-2.06-3.9c-1.08-1.9-2.26-3.78-3.5-5.58h0a74.22,74.22,0,0,0-29.71-25l-.45,1.85-.17.77c-.13.58-.25,1.12-.36,1.67l-.12.6-.11.55-.24,1.3c0,.23-.08.47-.11.7l-.09.5c-.07.43-.14.85-.2,1.28,0,.25-.07.5-.1.75l-.07.49c0,.42-.11.83-.16,1.24L15,20.6,15,21l-.12,1.22c0,.3,0,.61-.07.91l0,.23c0,.46-.07.91-.1,1.37l-.06,1Z" transform="translate(-10.74 -3.58)"/></svg>