<svg xmlns="http://www.w3.org/2000/svg" viewBox="0 0 659.12 488.42"><defs><style>.cls-1{fill:#eb4d4b;}</style></defs><g id="Layer_2" data-name="Layer 2"><g id="Layer_1-2" data-name="Layer 1"><path class="cls-1" d="M160.22,327.09a16.49,16.49,0,0,0-16.49-16.49H82.62a16.49,16.49,0,0,0,0,33h61.11a16.48,16.48,0,0,0,16.48-16.49Zm0-165.76a16.48,16.48,0,0,0-16.49-16.48H82.63a16.49,16.49,0,0,0,0,33h61.11a16.5,16.5,0,0,0,16.5-16.5Zm27.63,82.88a16.5,16.5,0,0,0-16.5-16.49H16.49a16.5,16.5,0,0,0,0,33H171.36A16.5,16.5,0,0,0,187.86,244.21Zm462.25,14.71L201.41,486.6A16.5,16.5,0,0,1,178,467.67L231.5,265.55A16.49,16.49,0,0,1,245,253.45l62.61-9.24L245,235a16.48,16.48,0,0,1-13.53-12.1L178,20.75C174.38,7,188.71-4.62,201.41,1.82L650.11,229.5a16.51,16.51,0,0,1,0,29.42Z"/></g></g></svg>