<svg id="Layer_4" data-name="Layer 4" xmlns="http://www.w3.org/2000/svg" viewBox="0 0 426.67 512"><defs><style>.cls-1{fill:#fff;}</style></defs><path class="cls-1" d="M456.09,360.81a142.87,142.87,0,0,1-50.76-109.33V192c0-75.07-55.76-137.22-128-147.63v-23a21.33,21.33,0,1,0-42.66,0v23c-72.26,10.41-128,72.56-128,147.63v59.48A143,143,0,0,1,55.72,361,37.33,37.33,0,0,0,80,426.67H432a37.34,37.34,0,0,0,24.09-65.86Z" transform="translate(-42.67 0)"/><path class="cls-1" d="M256,512a80.14,80.14,0,0,0,78.38-64H177.62A80.14,80.14,0,0,0,256,512Z" transform="translate(-42.67 0)"/></svg>